<?xml version="1.0" encoding="UTF-8"?>
<svg xmlns="http://www.w3.org/2000/svg" xmlns:xlink="http://www.w3.org/1999/xlink" width="28px" height="40px" viewBox="0 0 28 39" version="1.1">
<g id="surface1">
<path style=" stroke:none;fill-rule:nonzero;fill:rgb(61.56863%,66.666669%,74.509805%);fill-opacity:1;" d="M 6.3125 14.507812 C 5.78125 14.503906 5.253906 14.503906 4.722656 14.503906 C 4.207031 14.5 4.027344 14.253906 4.222656 13.777344 C 4.492188 13.121094 5.027344 12.753906 5.699219 12.582031 C 6.433594 12.390625 7.222656 12.484375 7.875 12.875 C 8.125 13.023438 8.199219 13.199219 8.199219 13.480469 C 8.203125 13.691406 8.203125 13.902344 8.195312 14.113281 C 8.191406 14.265625 8.25 14.398438 8.070312 14.472656 C 7.988281 14.507812 7.898438 14.507812 7.808594 14.507812 C 7.308594 14.507812 6.8125 14.507812 6.3125 14.507812 Z M 6.3125 14.507812 "/>
<path style=" stroke:none;fill-rule:nonzero;fill:rgb(61.56863%,66.666669%,74.509805%);fill-opacity:1;" d="M 5.351562 10.867188 C 5.339844 10.1875 5.800781 9.664062 6.421875 9.65625 C 7.019531 9.648438 7.527344 10.164062 7.539062 10.789062 C 7.550781 11.460938 7.070312 11.984375 6.457031 12.003906 C 5.871094 12.023438 5.320312 11.445312 5.351562 10.867188 Z M 5.351562 10.867188 "/>
<path style=" stroke:none;fill-rule:nonzero;fill:rgb(61.56863%,66.666669%,74.509805%);fill-opacity:1;" d="M 9.464844 12.855469 C 9.800781 12.640625 9.96875 12.316406 9.96875 11.925781 C 9.96875 11.566406 9.652344 11.191406 9.164062 11.097656 C 8.726562 11.011719 8.265625 11.269531 8.097656 11.691406 C 7.9375 12.089844 8.050781 12.546875 8.414062 12.796875 C 8.464844 12.835938 8.519531 12.863281 8.566406 12.90625 C 8.703125 13.027344 8.675781 13.238281 8.679688 13.402344 C 8.683594 13.683594 8.671875 13.96875 8.679688 14.253906 C 8.683594 14.414062 8.792969 14.796875 9.015625 14.761719 C 9.175781 14.734375 9.675781 14.289062 9.484375 14.125 C 9.445312 14.09375 9.402344 14.070312 9.371094 14.035156 C 9.265625 13.917969 9.34375 13.773438 9.4375 13.683594 C 9.515625 13.609375 9.652344 13.519531 9.636719 13.398438 C 9.621094 13.234375 9.234375 13.140625 9.34375 12.960938 C 9.371094 12.914062 9.421875 12.886719 9.464844 12.855469 Z M 9.023438 12 C 8.84375 11.984375 8.742188 11.894531 8.742188 11.734375 C 8.742188 11.402344 9.253906 11.394531 9.257812 11.738281 C 9.257812 11.902344 9.164062 11.976562 9.023438 12 Z M 9.023438 12 "/>
<path style=" stroke:none;fill-rule:nonzero;fill:rgb(61.56863%,66.666669%,74.509805%);fill-opacity:1;" d="M 11.972656 12.765625 L 12.957031 14.128906 L 12.636719 14.128906 L 11.789062 12.933594 L 11.480469 13.261719 L 11.480469 14.128906 L 11.234375 14.128906 L 11.234375 11.738281 L 11.480469 11.738281 L 11.480469 12.9375 L 11.492188 12.9375 L 12.605469 11.738281 L 12.90625 11.738281 Z M 11.972656 12.765625 "/>
<path style=" stroke:none;fill-rule:nonzero;fill:rgb(61.56863%,66.666669%,74.509805%);fill-opacity:1;" d="M 13.140625 13.308594 L 13.140625 13.097656 C 13.140625 12.605469 13.414062 12.265625 13.890625 12.265625 C 14.363281 12.265625 14.640625 12.601562 14.640625 13.117188 L 14.640625 13.269531 L 13.386719 13.269531 L 13.386719 13.3125 C 13.386719 13.699219 13.582031 13.949219 13.910156 13.949219 C 14.160156 13.949219 14.308594 13.820312 14.363281 13.648438 L 14.613281 13.648438 C 14.550781 13.929688 14.308594 14.160156 13.90625 14.160156 C 13.425781 14.160156 13.140625 13.824219 13.140625 13.308594 Z M 14.394531 13.058594 L 14.394531 13.054688 C 14.394531 12.722656 14.191406 12.476562 13.890625 12.476562 C 13.585938 12.476562 13.386719 12.722656 13.386719 13.054688 L 13.386719 13.058594 Z M 14.394531 13.058594 "/>
<path style=" stroke:none;fill-rule:nonzero;fill:rgb(61.56863%,66.666669%,74.509805%);fill-opacity:1;" d="M 15.816406 14.144531 L 15.757812 14.296875 C 15.625 14.648438 15.453125 14.765625 15.167969 14.765625 C 15.117188 14.765625 15.0625 14.761719 15.011719 14.75 L 15.011719 14.546875 C 15.042969 14.550781 15.101562 14.554688 15.148438 14.554688 C 15.351562 14.554688 15.457031 14.476562 15.515625 14.28125 L 15.554688 14.15625 L 14.863281 12.296875 L 15.132812 12.296875 L 15.675781 13.851562 L 15.6875 13.851562 L 16.226562 12.296875 L 16.488281 12.296875 Z M 15.816406 14.144531 "/>
<path style=" stroke:none;fill-rule:nonzero;fill:rgb(61.56863%,66.666669%,74.509805%);fill-opacity:1;" d="M 17.058594 14.128906 L 17.058594 11.960938 L 16.300781 11.960938 L 16.300781 11.738281 L 18.0625 11.738281 L 18.0625 11.960938 L 17.304688 11.960938 L 17.304688 14.128906 Z M 17.058594 14.128906 "/>
<path style=" stroke:none;fill-rule:nonzero;fill:rgb(61.56863%,66.666669%,74.509805%);fill-opacity:1;" d="M 18.476562 11.675781 C 18.570312 11.675781 18.648438 11.753906 18.648438 11.84375 C 18.648438 11.941406 18.570312 12.015625 18.476562 12.015625 C 18.382812 12.015625 18.304688 11.941406 18.304688 11.84375 C 18.304688 11.753906 18.382812 11.675781 18.476562 11.675781 Z M 18.351562 12.296875 L 18.597656 12.296875 L 18.597656 14.128906 L 18.351562 14.128906 Z M 18.351562 12.296875 "/>
<path style=" stroke:none;fill-rule:nonzero;fill:rgb(61.56863%,66.666669%,74.509805%);fill-opacity:1;" d="M 19.1875 12.296875 L 19.433594 12.296875 L 19.433594 12.535156 L 19.445312 12.535156 C 19.503906 12.410156 19.664062 12.265625 19.925781 12.265625 C 20.222656 12.265625 20.398438 12.394531 20.46875 12.578125 L 20.480469 12.578125 C 20.542969 12.421875 20.734375 12.265625 21.050781 12.265625 C 21.4375 12.265625 21.675781 12.496094 21.675781 12.882812 L 21.675781 14.128906 L 21.429688 14.128906 L 21.429688 12.929688 C 21.429688 12.667969 21.277344 12.488281 21 12.488281 C 20.707031 12.488281 20.550781 12.695312 20.550781 12.953125 L 20.550781 14.128906 L 20.308594 14.128906 L 20.308594 12.953125 C 20.308594 12.65625 20.144531 12.488281 19.875 12.488281 C 19.617188 12.488281 19.433594 12.667969 19.433594 12.957031 L 19.433594 14.128906 L 19.1875 14.128906 Z M 19.1875 12.296875 "/>
<path style=" stroke:none;fill-rule:nonzero;fill:rgb(61.56863%,66.666669%,74.509805%);fill-opacity:1;" d="M 22.15625 13.308594 L 22.15625 13.097656 C 22.15625 12.605469 22.429688 12.265625 22.90625 12.265625 C 23.378906 12.265625 23.65625 12.601562 23.65625 13.117188 L 23.65625 13.269531 L 22.40625 13.269531 L 22.40625 13.3125 C 22.40625 13.699219 22.597656 13.949219 22.929688 13.949219 C 23.179688 13.949219 23.324219 13.820312 23.382812 13.648438 L 23.628906 13.648438 C 23.566406 13.929688 23.328125 14.160156 22.921875 14.160156 C 22.445312 14.160156 22.15625 13.824219 22.15625 13.308594 Z M 23.410156 13.058594 L 23.410156 13.054688 C 23.410156 12.722656 23.210938 12.476562 22.90625 12.476562 C 22.601562 12.476562 22.40625 12.722656 22.40625 13.054688 L 22.40625 13.058594 Z M 23.410156 13.058594 "/>
</g>
</svg>
