<?xml version="1.0" encoding="UTF-8"?>
<svg xmlns="http://www.w3.org/2000/svg" xmlns:xlink="http://www.w3.org/1999/xlink" width="150px" height="40px" viewBox="0 0 150 40" version="1.1">
<g id="surface1">
<path style=" stroke:none;fill-rule:nonzero;fill:rgb(61.568627%,66.666667%,74.509804%);fill-opacity:1;" d="M 16.855469 37.984375 C 12.800781 37.976562 8.742188 37.964844 4.6875 37.949219 C 0.726562 37.929688 -0.640625 36.003906 0.84375 32.277344 C 2.898438 27.117188 7.023438 24.265625 12.144531 22.90625 C 17.792969 21.410156 23.820312 22.136719 28.835938 25.207031 C 30.746094 26.375 31.308594 27.757812 31.324219 29.949219 C 31.332031 31.605469 31.332031 33.261719 31.28125 34.917969 C 31.246094 36.09375 31.703125 37.136719 30.320312 37.726562 C 29.695312 37.992188 28.996094 37.996094 28.316406 37.996094 C 24.5 37.996094 20.679688 37.988281 16.855469 37.984375 Z M 16.855469 37.984375 "/>
<path style=" stroke:none;fill-rule:nonzero;fill:rgb(61.568627%,66.666667%,74.509804%);fill-opacity:1;" d="M 9.488281 9.496094 C 9.414062 4.15625 12.941406 0.0703125 17.6875 0 C 22.269531 -0.0664062 26.15625 3.960938 26.246094 8.871094 C 26.34375 14.121094 22.675781 18.222656 17.960938 18.386719 C 13.480469 18.542969 9.257812 14.003906 9.488281 9.496094 Z M 9.488281 9.496094 "/>
<path style=" stroke:none;fill-rule:nonzero;fill:rgb(61.568627%,66.666667%,74.509804%);fill-opacity:1;" d="M 41.019531 25.066406 C 43.578125 23.378906 44.855469 20.820312 44.863281 17.777344 C 44.871094 14.949219 42.445312 12.015625 38.691406 11.273438 C 35.355469 10.617188 31.828125 12.636719 30.53125 15.9375 C 29.304688 19.054688 30.160156 22.648438 32.949219 24.609375 C 33.34375 24.890625 33.773438 25.128906 34.132812 25.453125 C 35.171875 26.40625 34.960938 28.046875 34.984375 29.324219 C 35.023438 31.542969 34.921875 33.773438 34.992188 35.992188 C 35.035156 37.257812 35.855469 40.273438 37.574219 39.976562 C 38.78125 39.773438 42.617188 36.265625 41.144531 34.984375 C 40.863281 34.742188 40.527344 34.566406 40.277344 34.289062 C 39.46875 33.386719 40.066406 32.253906 40.800781 31.550781 C 41.410156 30.972656 42.433594 30.25 42.335938 29.289062 C 42.207031 28.019531 39.242188 27.28125 40.074219 25.886719 C 40.285156 25.523438 40.664062 25.296875 41.019531 25.066406 Z M 37.621094 18.339844 C 36.238281 18.246094 35.460938 17.523438 35.46875 16.261719 C 35.484375 13.683594 39.398438 13.609375 39.421875 16.316406 C 39.433594 17.578125 38.707031 18.171875 37.621094 18.339844 Z M 37.621094 18.339844 "/>
<path style=" stroke:none;fill-rule:nonzero;fill:rgb(61.568627%,66.666667%,74.509804%);fill-opacity:1;" d="M 60.230469 24.347656 L 67.761719 35.03125 L 65.300781 35.03125 L 58.808594 25.679688 L 56.460938 28.222656 L 56.460938 35.03125 L 54.554688 35.03125 L 54.554688 16.304688 L 56.460938 16.304688 L 56.460938 25.695312 L 56.53125 25.695312 L 65.0625 16.304688 L 67.367188 16.304688 Z M 60.230469 24.347656 "/>
<path style=" stroke:none;fill-rule:nonzero;fill:rgb(61.568627%,66.666667%,74.509804%);fill-opacity:1;" d="M 69.167969 28.589844 L 69.167969 26.957031 C 69.167969 23.082031 71.253906 20.433594 74.914062 20.433594 C 78.570312 20.433594 80.65625 23.070312 80.65625 27.105469 L 80.65625 28.296875 L 71.066406 28.296875 L 71.066406 28.640625 C 71.066406 31.648438 72.554688 33.625 75.074219 33.625 C 76.984375 33.625 78.117188 32.609375 78.542969 31.25 L 80.453125 31.25 C 79.960938 33.472656 78.132812 35.261719 75.023438 35.261719 C 71.367188 35.261719 69.167969 32.65625 69.167969 28.589844 Z M 78.761719 26.65625 L 78.761719 26.613281 C 78.761719 24.007812 77.234375 22.082031 74.914062 22.082031 C 72.59375 22.082031 71.066406 24.003906 71.066406 26.613281 L 71.066406 26.65625 Z M 78.761719 26.65625 "/>
<path style=" stroke:none;fill-rule:nonzero;fill:rgb(61.568627%,66.666667%,74.509804%);fill-opacity:1;" d="M 89.667969 35.152344 L 89.230469 36.335938 C 88.191406 39.109375 86.886719 40 84.714844 40 C 84.304688 40 83.882812 39.972656 83.5 39.890625 L 83.5 38.285156 C 83.746094 38.324219 84.183594 38.355469 84.539062 38.355469 C 86.09375 38.355469 86.929688 37.738281 87.378906 36.210938 L 87.675781 35.25 L 82.355469 20.683594 L 84.441406 20.683594 L 88.605469 32.847656 L 88.671875 32.847656 L 92.804688 20.683594 L 94.8125 20.683594 Z M 89.667969 35.152344 "/>
<path style=" stroke:none;fill-rule:nonzero;fill:rgb(61.568627%,66.666667%,74.509804%);fill-opacity:1;" d="M 99.179688 35.03125 L 99.179688 18.046875 L 93.382812 18.046875 L 93.382812 16.304688 L 106.875 16.304688 L 106.875 18.046875 L 101.0625 18.046875 L 101.0625 35.03125 Z M 99.179688 35.03125 "/>
<path style=" stroke:none;fill-rule:nonzero;fill:rgb(61.568627%,66.666667%,74.509804%);fill-opacity:1;" d="M 110.042969 15.820312 C 110.765625 15.820312 111.363281 16.414062 111.363281 17.140625 C 111.363281 17.871094 110.761719 18.472656 110.042969 18.472656 C 109.320312 18.472656 108.730469 17.882812 108.730469 17.140625 C 108.734375 16.414062 109.320312 15.820312 110.042969 15.820312 Z M 109.101562 20.683594 L 110.984375 20.683594 L 110.984375 35.03125 L 109.101562 35.03125 Z M 109.101562 20.683594 "/>
<path style=" stroke:none;fill-rule:nonzero;fill:rgb(61.568627%,66.666667%,74.509804%);fill-opacity:1;" d="M 115.488281 20.683594 L 117.371094 20.683594 L 117.371094 22.550781 L 117.464844 22.550781 C 117.914062 21.5625 119.144531 20.4375 121.148438 20.4375 C 123.441406 20.4375 124.777344 21.453125 125.308594 22.894531 L 125.394531 22.894531 C 125.882812 21.671875 127.355469 20.4375 129.777344 20.4375 C 132.722656 20.4375 134.550781 22.25 134.550781 25.253906 L 134.550781 35.03125 L 132.664062 35.03125 L 132.664062 25.625 C 132.664062 23.59375 131.503906 22.179688 129.375 22.179688 C 127.246094 22.179688 125.953125 23.785156 125.953125 25.832031 L 125.953125 35.03125 L 124.082031 35.03125 L 124.082031 25.816406 C 124.082031 23.480469 122.839844 22.179688 120.75 22.179688 C 118.773438 22.179688 117.367188 23.59375 117.367188 25.859375 L 117.367188 35.03125 L 115.484375 35.03125 L 115.484375 20.683594 Z M 115.488281 20.683594 "/>
<path style=" stroke:none;fill-rule:nonzero;fill:rgb(61.568627%,66.666667%,74.509804%);fill-opacity:1;" d="M 138.25 28.589844 L 138.25 26.957031 C 138.25 23.082031 140.335938 20.433594 143.996094 20.433594 C 147.652344 20.433594 149.738281 23.070312 149.738281 27.105469 L 149.738281 28.296875 L 140.148438 28.296875 L 140.148438 28.640625 C 140.148438 31.648438 141.636719 33.625 144.15625 33.625 C 146.066406 33.625 147.199219 32.609375 147.625 31.25 L 149.535156 31.25 C 149.042969 33.472656 147.214844 35.261719 144.105469 35.261719 C 140.449219 35.261719 138.25 32.65625 138.25 28.589844 Z M 147.84375 26.65625 L 147.84375 26.613281 C 147.84375 24.007812 146.316406 22.082031 143.996094 22.082031 C 141.675781 22.082031 140.148438 24.003906 140.148438 26.613281 L 140.148438 26.65625 Z M 147.84375 26.65625 "/>
</g>
</svg>
