<?xml version="1.0" encoding="UTF-8"?>
<svg xmlns="http://www.w3.org/2000/svg" xmlns:xlink="http://www.w3.org/1999/xlink" width="67px" height="60px" viewBox="0 0 67 60" version="1.1">
<g id="surface1">
<path style=" stroke:none;fill-rule:nonzero;fill:rgb(61.568627%,66.666667%,74.509804%);fill-opacity:1;" d="M 24.941406 56.878906 C 18.859375 56.878906 12.777344 56.898438 6.695312 56.871094 C 0.753906 56.84375 -1.296875 53.957031 0.929688 48.375 C 4.007812 40.644531 10.195312 36.367188 17.878906 34.332031 C 27.183594 31.867188 36.039062 33.226562 44.175781 38.609375 C 45.898438 39.75 46.796875 41.113281 46.679688 43.34375 C 46.484375 47.074219 46.53125 50.828125 46.644531 54.566406 C 46.695312 56.394531 46.023438 56.925781 44.28125 56.90625 C 37.835938 56.832031 31.390625 56.878906 24.945312 56.878906 Z M 24.941406 56.878906 "/>
<path style=" stroke:none;fill-rule:nonzero;fill:rgb(61.568627%,66.666667%,74.509804%);fill-opacity:1;" d="M 13.890625 14.230469 C 13.777344 6.226562 19.070312 0.101562 26.183594 0 C 33.054688 -0.0976562 38.886719 5.941406 39.019531 13.292969 C 39.167969 21.160156 33.667969 27.308594 26.597656 27.554688 C 19.871094 27.792969 13.542969 20.988281 13.890625 14.230469 Z M 13.890625 14.230469 "/>
<path style=" stroke:none;fill-rule:nonzero;fill:rgb(61.568627%,66.666667%,74.509804%);fill-opacity:1;" d="M 61.210938 37.617188 C 64.882812 35.613281 67.003906 32.449219 66.945312 26.644531 C 66.957031 22.40625 63.320312 18.011719 57.691406 16.902344 C 52.691406 15.917969 47.398438 18.941406 45.453125 23.886719 C 43.398438 29.117188 45.050781 34.503906 49.914062 37.410156 C 51.679688 38.472656 52.160156 39.667969 52.109375 41.589844 C 52 45.96875 52.1875 50.355469 52.054688 54.734375 C 51.972656 57.410156 53.773438 58.808594 55.554688 59.824219 C 56.9375 60.617188 57.648438 58.539062 58.652344 57.75 C 59.503906 57.082031 60.136719 56.136719 60.976562 55.449219 C 62.347656 54.324219 62.515625 53.246094 61.03125 52.152344 C 58.84375 50.535156 58.800781 49.175781 60.929688 47.246094 C 64.359375 44.140625 64.167969 44.695312 61.042969 41.484375 C 60.980469 41.417969 60.921875 41.34375 60.847656 41.292969 C 59.011719 39.871094 58.941406 38.859375 61.210938 37.617188 Z M 56.085938 27.492188 C 54.011719 27.347656 52.84375 26.261719 52.859375 24.375 C 52.871094 22.644531 53.921875 21.445312 55.765625 21.402344 C 57.761719 21.351562 58.773438 22.472656 58.785156 24.457031 C 58.800781 26.34375 57.710938 27.230469 56.085938 27.492188 Z M 56.085938 27.492188 "/>
</g>
</svg>
