<?xml version="1.0" encoding="UTF-8"?>
<svg xmlns="http://www.w3.org/2000/svg" xmlns:xlink="http://www.w3.org/1999/xlink" width="56px" height="50px" viewBox="0 0 56 50" version="1.1">
<g id="surface1">
<path style=" stroke:none;fill-rule:nonzero;fill:rgb(61.568627%,66.666667%,74.509804%);fill-opacity:1;" d="M 20.847656 47.398438 C 15.765625 47.398438 10.679688 47.417969 5.597656 47.394531 C 0.628906 47.371094 -1.082031 44.964844 0.777344 40.3125 C 3.347656 33.871094 8.523438 30.304688 14.945312 28.609375 C 22.71875 26.554688 30.121094 27.6875 36.921875 32.175781 C 38.363281 33.125 39.113281 34.261719 39.015625 36.117188 C 38.851562 39.230469 38.890625 42.355469 38.984375 45.472656 C 39.03125 46.996094 38.464844 47.4375 37.011719 47.421875 C 31.625 47.359375 26.238281 47.398438 20.851562 47.398438 Z M 20.847656 47.398438 "/>
<path style=" stroke:none;fill-rule:nonzero;fill:rgb(61.568627%,66.666667%,74.509804%);fill-opacity:1;" d="M 11.609375 11.859375 C 11.515625 5.191406 15.941406 0.0859375 21.886719 0 C 27.628906 -0.078125 32.503906 4.949219 32.613281 11.078125 C 32.738281 17.632812 28.140625 22.757812 22.230469 22.964844 C 16.609375 23.160156 11.320312 17.492188 11.609375 11.859375 Z M 11.609375 11.859375 "/>
<path style=" stroke:none;fill-rule:nonzero;fill:rgb(61.568627%,66.666667%,74.509804%);fill-opacity:1;" d="M 51.160156 31.347656 C 54.230469 29.679688 56.003906 27.042969 55.953125 22.203125 C 55.964844 18.671875 52.921875 15.007812 48.21875 14.085938 C 44.042969 13.265625 39.617188 15.785156 37.988281 19.90625 C 36.273438 24.261719 37.652344 28.753906 41.71875 31.175781 C 43.195312 32.058594 43.597656 33.054688 43.554688 34.65625 C 43.460938 38.304688 43.621094 41.964844 43.507812 45.609375 C 43.441406 47.84375 44.945312 49.007812 46.433594 49.855469 C 47.589844 50.511719 48.183594 48.78125 49.023438 48.125 C 49.734375 47.566406 50.261719 46.78125 50.964844 46.207031 C 52.113281 45.269531 52.25 44.371094 51.011719 43.460938 C 49.179688 42.113281 49.144531 40.980469 50.925781 39.375 C 53.792969 36.78125 53.632812 37.246094 51.019531 34.570312 C 50.96875 34.515625 50.917969 34.453125 50.859375 34.410156 C 49.324219 33.226562 49.261719 32.382812 51.160156 31.347656 Z M 46.878906 22.910156 C 45.144531 22.792969 44.167969 21.882812 44.179688 20.3125 C 44.1875 18.871094 45.070312 17.871094 46.609375 17.835938 C 48.277344 17.792969 49.121094 18.726562 49.132812 20.378906 C 49.144531 21.953125 48.238281 22.691406 46.878906 22.910156 Z M 46.878906 22.910156 "/>
</g>
</svg>
