<?xml version="1.0" encoding="utf-8"?>
<!-- Generator: Adobe Illustrator 27.0.0, SVG Export Plug-In . SVG Version: 6.00 Build 0)  -->
<svg version="1.1" id="Layer_1" xmlns="http://www.w3.org/2000/svg" xmlns:xlink="http://www.w3.org/1999/xlink" x="0px" y="0px"
	 viewBox="0 0 40 40" style="enable-background:new 0 0 40 40;" xml:space="preserve">
<style type="text/css">
	.st0{fill:url(#circle_00000054230304934420076080000006074243920461037211_);}
	.st1{display:none;}
	.st2{display:inline;}
	.st3{fill:url(#circle_00000042723133294764409740000008561832044068711577_);}
	.st4{fill:#FFFFFF;}
	.st5{fill:url(#circle_00000120539979921236794130000016210015776445869465_);}
	.st6{fill:url(#heart_00000035507078191813362420000013140894415105626533_);}
	.st7{fill:url(#left_00000106851819223470724460000007163752831553180842_);}
	.st8{fill:url(#right_00000156587270461149713140000017277748767089123483_);}
	.st9{fill:url(#mouth_00000124866150717749667990000003689142976612266892_);}
	.st10{fill:url(#eye_00000114059752204035030380000006500821178412126096_);}
	.st11{fill:#4E506A;}
	.st12{fill:url(#eye_00000139276713612301072600000016317543911634131584_);}
	.st13{fill:url(#left_00000181068834959835139990000010033460019579577996_);}
	.st14{fill:url(#right_00000025417369830161913890000002205269130758404751_);}
	.st15{fill:url(#circle_00000058586678579916179040000007501672104771031461_);}
	.st16{fill:url(#mouth_00000109720097928817291780000003797015265364082848_);}
	.st17{fill:url(#tongue_00000068650957175572532000000003124724534141031577_);}
	.st18{fill:url(#right_00000070804460843928807970000018005607609309498759_);}
	.st19{fill:url(#left_00000015351997711456731680000007911219051902354612_);}
	.st20{fill:url(#circle_00000021115035112899995990000007784100840334302856_);}
	.st21{fill:url(#mouth_00000039818518357429327170000008804583349261039256_);}
	.st22{fill:url(#eye_00000064325377740230035890000001966315363046512770_);}
	.st23{fill:url(#eye_00000013171619997436889460000004789719739292918430_);}
	.st24{fill:url(#right_00000005949375861356608230000004927022884811511988_);}
	.st25{fill:url(#left_00000047755064580223786130000008176201256824056218_);}
	.st26{fill:url(#circle_00000135664791837601798750000004924869091262703529_);}
	.st27{fill:url(#tear_00000010279233478140930850000000329290470825922188_);}
	.st28{fill:url(#light_00000133498724928133565840000012058674949352914103_);}
	.st29{fill:url(#mouth_00000029754348898969920840000011982195815205480873_);}
	.st30{fill:url(#eye_00000129182873468783846000000017008822301699503745_);}
	.st31{fill:url(#eye_00000022526895224865585710000002971257337926276737_);}
	.st32{fill:url(#right_00000169560288317044399100000009423617679704812420_);}
	.st33{fill:url(#left_00000140010451639455133850000016142380458058825396_);}
	.st34{fill:url(#circle_00000177447609348542376570000000759468331460705979_);}
	.st35{fill:url(#mouth_00000050624194413746354820000007336816285265729426_);}
	.st36{fill:url(#right_00000016778483630697588650000005080501696380881811_);}
	.st37{fill:url(#left_00000039130386529838013680000017283848282387986107_);}
	.st38{fill:url(#right_00000134929348023039633860000003551058547562100865_);}
	.st39{fill:url(#left_00000014625150093980398620000000621409659468396189_);}
</style>
<linearGradient id="circle_00000106147922477528158470000001898069362674970804_" gradientUnits="userSpaceOnUse" x1="20" y1="42.4252" x2="20" y2="2.4252" gradientTransform="matrix(1 0 0 -1 0 42.4252)">
	<stop  offset="0" style="stop-color:#C8DC6D"/>
	<stop  offset="1" style="stop-color:#8AC540"/>
</linearGradient>
<circle id="circle_32_" style="fill:url(#circle_00000106147922477528158470000001898069362674970804_);" cx="20" cy="20" r="20"/>
<g id="Layer_2_00000119814433558636499240000009056026429788298660_" class="st1">
	<g id="love" class="st2">
		
			<linearGradient id="circle_00000028296181282530219280000006171285664184693901_" gradientUnits="userSpaceOnUse" x1="20" y1="42.4252" x2="20" y2="2.4252" gradientTransform="matrix(1 0 0 -1 0 42.4252)">
			<stop  offset="0" style="stop-color:#FF6680"/>
			<stop  offset="1" style="stop-color:#E61739"/>
		</linearGradient>
		
			<circle id="circle_11_" style="fill:url(#circle_00000028296181282530219280000006171285664184693901_);" cx="20" cy="20" r="20"/>
		<path id="heart_icon_1_" class="st4" d="M25.9,11c-2.4,0-4.5,1.4-5.6,3.4c-0.1,0.2-0.5,0.2-0.6,0c-1.1-2.1-3.2-3.4-5.6-3.4
			c-3.5,0-6.4,3-6.4,6.7c0,8,7.4,12.1,12.1,14.7c0.1,0.1,0.2,0.1,0.3,0c4.8-2.7,12.1-6.7,12.1-14.8C32.3,14,29.4,11,25.9,11z"/>
	</g>
</g>
<g id="Layer_3" class="st1">
	<g id="care" class="st2">
		
			<linearGradient id="circle_00000031907931471437851950000012042692317382621060_" gradientUnits="userSpaceOnUse" x1="20" y1="42.4252" x2="20" y2="2.4252" gradientTransform="matrix(1 0 0 -1 0 42.4252)">
			<stop  offset="0" style="stop-color:#FEEA70"/>
			<stop  offset="1" style="stop-color:#F69B30"/>
		</linearGradient>
		<path id="circle_5_" style="fill:url(#circle_00000031907931471437851950000012042692317382621060_);" d="M40,20
			c0,3.9-1.1,7.5-3,10.6c-3.5,5.6-9.8,9.4-17,9.4C8.9,40,0,31,0,20S8.9,0,20,0c8.7,0,16.2,5.6,18.9,13.4C39.6,15.5,40,17.7,40,20z"
			/>
		
			<linearGradient id="heart_00000106842570641165892730000011448828390085846408_" gradientUnits="userSpaceOnUse" x1="19.0545" y1="22.3983" x2="11.7343" y2="5.5057" gradientTransform="matrix(1 0 0 -1 0 42.4252)">
			<stop  offset="0" style="stop-color:#FC607C"/>
			<stop  offset="1" style="stop-color:#D91F3A"/>
		</linearGradient>
		<path id="heart_1_" style="fill:url(#heart_00000106842570641165892730000011448828390085846408_);" d="M24.6,20.5
			c-2.4-0.7-4.8,0-6.5,1.6c-0.2,0.2-0.5,0.1-0.6-0.2c-0.4-2.4-2.1-4.4-4.4-5.1c-3.4-1.1-7.2,1-8.3,4.6c-2.5,7.9,3.5,14,7.3,18.1
			c0.1,0.1,0.2,0.1,0.3,0.1c5.5-1.2,13.9-2.8,16.4-10.7C30,25.4,28.1,21.6,24.6,20.5z"/>
		<g id="hands">
			
				<radialGradient id="left_00000029024979555843370460000007279733407162647971_" cx="1.8922" cy="25.0341" r="17.812" gradientTransform="matrix(1 0 0 -1 0 42.4252)" gradientUnits="userSpaceOnUse">
				<stop  offset="0" style="stop-color:#FFDC5E"/>
				<stop  offset="1" style="stop-color:#EDA83A"/>
			</radialGradient>
			<path id="left" style="fill:url(#left_00000029024979555843370460000007279733407162647971_);" d="M13.9,30.7
				c-1.2,0.5-2.6,0.8-3.9,0.7c-1.8-0.1-3.3-0.5-4.7-1.3c-1.6-0.9-3-2.2-4.2-3.8c-0.7-2-1-4.1-1-6.3c0-1.8,0.2-3.5,0.7-5.2
				c1.2,2.5,2.6,4.5,4.4,5.8c1.8,1.3,4.2,1.7,7.3,1c0.6-0.1,1.3,0.4,1.1,1.1c-0.1,0.5-0.5,0.9-1,1.1c-0.1,0.1-0.1,0.2,0.1,0.2
				c0.4,0,0.9,0,1.2,0c1.5,0.1,2.7,1.2,2.8,2.7C16.7,28.3,16.1,29.7,13.9,30.7z"/>
			
				<linearGradient id="right_00000169548092232393366240000004465643409538997689_" gradientUnits="userSpaceOnUse" x1="33.549" y1="24.049" x2="26.4288" y2="6.1785" gradientTransform="matrix(1 0 0 -1 0 42.4252)">
				<stop  offset="0" style="stop-color:#FFDC5E"/>
				<stop  offset="1" style="stop-color:#EDA83A"/>
			</linearGradient>
			<path id="right" style="fill:url(#right_00000169548092232393366240000004465643409538997689_);" d="M40,20c0,0.2,0,0.5,0,0.7
				c0,0.1,0,0.2,0,0.4c0,0.4,0,0.7-0.1,1.1c0,0.1,0,0.2,0,0.4c0,0.2-0.1,0.5-0.1,0.8c0,0.1,0,0.2,0,0.3c0,0.1,0,0.2-0.1,0.3
				c0,0.1,0,0.2-0.1,0.3c0,0.2-0.1,0.5-0.2,0.7c-0.1,0.3-0.2,0.6-0.3,1l0,0c-0.9,1.6-2,3.2-3.2,4.6c-0.8,0.9-1.6,1.8-2.4,2.5
				c-2.1,1.9-4.5,3.3-6.9,3.6c-1.3,0.2-2.6,0.1-3.8-0.3c0,0-0.1,0-0.1,0c-2.3-0.8-3-2.1-3-3.7c0-1.5,1.1-2.8,2.6-3
				c0.4,0,0.8-0.1,1.2-0.1c0.1,0,0.1-0.2,0-0.2c-0.6-0.2-1-0.6-1.1-1c-0.2-0.6,0.4-1.3,1-1.2c2.2,0.3,4.1,0,5.8-0.9
				c0.1,0,0.2-0.1,0.3-0.2c2.5-1.3,4.4-3.7,6.1-6.5c1.2-2.1,2.2-4.4,3.2-6.8c0.1,0.2,0.2,0.4,0.2,0.6c0,0.1,0.1,0.2,0.1,0.4
				c0,0,0,0,0,0.1c0,0.1,0.1,0.2,0.1,0.4c0,0.1,0.1,0.3,0.1,0.4c0.2,0.7,0.4,1.5,0.5,2.2c0,0.1,0,0.2,0,0.4c0,0,0,0,0,0
				c0,0.1,0,0.2,0,0.3c0,0.1,0,0.2,0,0.3c0,0.1,0,0.2,0,0.3c0,0.1,0,0.2,0,0.4c0,0.1,0,0.2,0,0.3c0,0.1,0,0.2,0,0.3
				C40,19.4,40,19.7,40,20z"/>
		</g>
		
			<linearGradient id="mouth_00000094607593526302496710000004820197812784054964_" gradientUnits="userSpaceOnUse" x1="20" y1="28.1996" x2="20" y2="26.2358" gradientTransform="matrix(1 0 0 -1 0 42.4252)">
			<stop  offset="0" style="stop-color:#482314"/>
			<stop  offset="1" style="stop-color:#9A4111"/>
		</linearGradient>
		<path id="mouth" style="fill:url(#mouth_00000094607593526302496710000004820197812784054964_);" d="M16.2,14.2
			c-0.2,0-0.4,0.2-0.3,0.4c0.4,0.9,2.1,1.5,4.1,1.5s3.7-0.7,4.1-1.5c0.1-0.2,0-0.4-0.3-0.4C23.8,14.2,16.2,14.2,16.2,14.2z"/>
		<g id="eyes">
			<g id="right_1_">
				
					<radialGradient id="eye_00000075862195857912408940000006336179122718769831_" cx="27.6918" cy="31.8301" r="4.1925" gradientTransform="matrix(1 0 0 -1 0 42.4252)" gradientUnits="userSpaceOnUse">
					<stop  offset="0" style="stop-color:#3B446B"/>
					<stop  offset="0.688" style="stop-color:#202340"/>
				</radialGradient>
				<path id="eye" style="fill:url(#eye_00000075862195857912408940000006336179122718769831_);" d="M25.5,11.5c1,1,3.1,1.4,4.1,0.3
					s0.6-3.6-0.4-4.6s-2.4-1-3.4,0S24.5,10.4,25.5,11.5z"/>
				<circle id="light_4_" class="st11" cx="26.7" cy="8" r="0.8"/>
			</g>
			<g id="left_2_">
				
					<radialGradient id="eye_00000030447919178962965050000018180086436593240724_" cx="-135.5701" cy="31.8301" r="4.1925" gradientTransform="matrix(-1 0 0 -1 -123.2607 42.4252)" gradientUnits="userSpaceOnUse">
					<stop  offset="0" style="stop-color:#3B446B"/>
					<stop  offset="0.688" style="stop-color:#202340"/>
				</radialGradient>
				<path id="eye_1_" style="fill:url(#eye_00000030447919178962965050000018180086436593240724_);" d="M14.5,11.5
					c-1,1-3.1,1.4-4.1,0.3s-0.6-3.6,0.4-4.6s2.3-1,3.4,0S15.5,10.4,14.5,11.5z"/>
				<circle id="light_1_" class="st11" cx="13.3" cy="8" r="0.8"/>
			</g>
		</g>
		<g id="brows">
			
				<radialGradient id="left_00000039853857589497623790000003445603609923180216_" cx="11.486" cy="39.6294" r="2.5123" gradientTransform="matrix(1 0 0 -1 0 42.4252)" gradientUnits="userSpaceOnUse">
				<stop  offset="0" style="stop-color:#E38200"/>
				<stop  offset="1" style="stop-color:#CD6700"/>
			</radialGradient>
			<path id="left_1_" style="fill:url(#left_00000039853857589497623790000003445603609923180216_);" d="M15.5,3.9
				c-2.5,0-5,0.6-7.2,1.8C8.1,5.8,7.9,5.8,7.8,5.7c0,0,0,0,0,0c-0.2-0.2-0.1-0.4,0-0.6c0.6-0.5,2-1.5,2.2-1.6c1.7-1,3.8-1.6,5.7-0.9
				C16,2.7,16.1,3,16.1,3.3c0,0,0,0,0,0C16.2,3.7,15.9,4,15.5,3.9z"/>
			
				<radialGradient id="right_00000175323347243196970330000010113179663598480527_" cx="-219.1515" cy="39.6294" r="2.5123" gradientTransform="matrix(-1 0 0 -1 -190.6328 42.4252)" gradientUnits="userSpaceOnUse">
				<stop  offset="0" style="stop-color:#E38200"/>
				<stop  offset="1" style="stop-color:#CD6700"/>
			</radialGradient>
			<path id="right_2_" style="fill:url(#right_00000175323347243196970330000010113179663598480527_);" d="M24.5,3.9
				c2.5,0,5,0.6,7.2,1.8c0.2,0.1,0.4,0.1,0.5-0.1c0,0,0,0,0,0c0.2-0.2,0.2-0.4,0-0.6c-0.6-0.5-2-1.5-2.2-1.6c-1.7-1-3.8-1.6-5.7-0.9
				C24,2.7,23.9,3,23.9,3.2c0,0,0,0,0,0C23.9,3.7,24.1,4,24.5,3.9z"/>
		</g>
	</g>
</g>
<g id="Layer_4" class="st1">
	<g id="haha" class="st2">
		
			<linearGradient id="circle_00000124161608674478694820000000918769588044555443_" gradientUnits="userSpaceOnUse" x1="20" y1="42.4252" x2="20" y2="2.4252" gradientTransform="matrix(1 0 0 -1 0 42.4252)">
			<stop  offset="0" style="stop-color:#FEEA70"/>
			<stop  offset="1" style="stop-color:#F69B30"/>
		</linearGradient>
		
			<circle id="circle_34_" style="fill:url(#circle_00000124161608674478694820000000918769588044555443_);" cx="20" cy="20" r="20"/>
		
			<linearGradient id="mouth_00000170247051974849594060000012040151410409524121_" gradientUnits="userSpaceOnUse" x1="20.02" y1="25.2454" x2="20.02" y2="7.9352" gradientTransform="matrix(1 0 0 -1 0 42.4252)">
			<stop  offset="0" style="stop-color:#472315"/>
			<stop  offset="1" style="stop-color:#8B3A0E"/>
		</linearGradient>
		<path id="mouth_1_" style="fill:url(#mouth_00000170247051974849594060000012040151410409524121_);" d="M33.8,21
			c-0.3,3.9-2,7.4-4.6,9.8c0,0,0,0,0,0l0,0c-2.4,2.3-5.6,3.7-9.1,3.7s-6.7-1.4-9.1-3.6c0,0,0,0,0,0c0,0,0,0,0,0
			c-2.6-2.4-4.3-5.9-4.6-9.8c-0.1-0.7,0.3-1.4,1-1.8c5-2.7,20.4-2.8,25.5,0C33.4,19.6,33.8,20.3,33.8,21z"/>
		
			<linearGradient id="tongue_00000052082292569322944090000011741546315428604846_" gradientUnits="userSpaceOnUse" x1="20.02" y1="14.8852" x2="20.02" y2="7.9352" gradientTransform="matrix(1 0 0 -1 0 42.4252)">
			<stop  offset="0" style="stop-color:#FC607C"/>
			<stop  offset="1" style="stop-color:#D91F3A"/>
		</linearGradient>
		<path id="tongue" style="fill:url(#tongue_00000052082292569322944090000011741546315428604846_);" d="M29.1,30.8L29.1,30.8
			c-2.4,2.3-5.6,3.7-9.1,3.7s-6.7-1.4-9.1-3.6c0,0,0,0,0,0c2-2,5.4-3.3,9.1-3.3S27.1,28.8,29.1,30.8z"/>
		<g id="eyes_1_">
			
				<linearGradient id="right_00000059311523785491543620000002531963875923141805_" gradientUnits="userSpaceOnUse" x1="28.2765" y1="33.7077" x2="28.2765" y2="27.1539" gradientTransform="matrix(1 0 0 -1 0 42.4252)">
				<stop  offset="0" style="stop-color:#191A33"/>
				<stop  offset="0.872" style="stop-color:#3B426A"/>
			</linearGradient>
			<path id="right_9_" style="fill:url(#right_00000059311523785491543620000002531963875923141805_);" d="M32.2,15.3
				c-0.1,0-0.3,0-0.4-0.1c-1.5-0.7-3.2-1.1-5-1.1c-0.8,0-1.5,0.1-2.3,0.2c-0.1,0-0.1,0-0.2,0c-0.3,0-0.6-0.2-0.8-0.5
				c-0.2-0.4-0.1-0.8,0.2-1.1c2-2.1,4.9-3.5,8-4c0,0,0.1,0,0.1,0c0.4,0,0.8,0.3,0.9,0.8c0.1,0.5-0.2,1-0.8,1.1
				c-1.5,0.3-3,0.8-4.3,1.5l-0.4,0.2l0.5,0c1.7,0.1,3.3,0.6,4.8,1.2c0.2,0.1,0.4,0.3,0.5,0.5c0.1,0.2,0.1,0.5,0,0.7
				C32.8,15.1,32.5,15.3,32.2,15.3z"/>
			
				<linearGradient id="left_00000123415519389716278380000006044198100557768094_" gradientUnits="userSpaceOnUse" x1="11.5937" y1="33.7077" x2="11.5937" y2="27.1477" gradientTransform="matrix(1 0 0 -1 0 42.4252)">
				<stop  offset="0" style="stop-color:#191A33"/>
				<stop  offset="0.872" style="stop-color:#3B426A"/>
			</linearGradient>
			<path id="left_9_" style="fill:url(#left_00000123415519389716278380000006044198100557768094_);" d="M7.7,15.3
				c-0.3,0-0.7-0.2-0.8-0.5c-0.1-0.2-0.1-0.5,0-0.7s0.2-0.4,0.5-0.5c1.5-0.7,3.1-1.1,4.8-1.2l0.5,0L12.1,12
				c-1.3-0.7-2.8-1.2-4.3-1.5C7.3,10.4,7,10,7.1,9.5C7.1,9,7.5,8.7,8,8.7c0,0,0.1,0,0.2,0c3.1,0.5,6,2,8,4c0.3,0.3,0.4,0.7,0.2,1.1
				c-0.2,0.3-0.5,0.5-0.8,0.5c-0.1,0-0.1,0-0.2,0c-0.7-0.1-1.5-0.2-2.3-0.2c-1.7,0-3.4,0.4-5,1.1C8,15.2,7.8,15.3,7.7,15.3z"/>
		</g>
	</g>
</g>
<g id="Layer_5" class="st1">
	<g id="wow" class="st2">
		
			<linearGradient id="circle_00000062177903058411308680000015415255737076542625_" gradientUnits="userSpaceOnUse" x1="20" y1="42.4252" x2="20" y2="2.4252" gradientTransform="matrix(1 0 0 -1 0 42.4252)">
			<stop  offset="0" style="stop-color:#FEEA70"/>
			<stop  offset="1" style="stop-color:#F69B30"/>
		</linearGradient>
		<circle id="circle_2_" style="fill:url(#circle_00000062177903058411308680000015415255737076542625_);" cx="20" cy="20" r="20"/>
		
			<linearGradient id="mouth_00000016057130327370582920000003214130849004025231_" gradientUnits="userSpaceOnUse" x1="19.95" y1="21.4452" x2="19.95" y2="6.8952" gradientTransform="matrix(1 0 0 -1 0 42.4252)">
			<stop  offset="0" style="stop-color:#472315"/>
			<stop  offset="1" style="stop-color:#8B3A0E"/>
		</linearGradient>
		<path id="mouth_2_" style="fill:url(#mouth_00000016057130327370582920000003214130849004025231_);" d="M14.2,29.9
			c0,3.1,2.5,5.7,5.7,5.7l0,0l0,0c3.1,0,5.7-2.5,5.7-5.7l0,0c0-1.1,0-2.1-0.2-3.2l-0.1-0.8C25.1,23.1,22.8,21,20,21l0,0l0,0
			c-2.8,0-5.2,2.1-5.5,4.9l-0.1,0.8C14.3,27.7,14.2,28.8,14.2,29.9L14.2,29.9z"/>
		<g id="eyes_2_">
			<g id="right_5_">
				
					<linearGradient id="eye_00000042708975280145728950000008324908916857253292_" gradientUnits="userSpaceOnUse" x1="28.38" y1="32.0552" x2="28.38" y2="24.5352" gradientTransform="matrix(1 0 0 -1 0 42.4252)">
					<stop  offset="0" style="stop-color:#191A33"/>
					<stop  offset="0.872" style="stop-color:#3B426A"/>
				</linearGradient>
				
					<ellipse id="eye_3_" style="fill:url(#eye_00000042708975280145728950000008324908916857253292_);" cx="28.4" cy="14.1" rx="2.8" ry="3.8"/>
				<ellipse id="light_2_" class="st11" cx="27.7" cy="12.9" rx="0.9" ry="1.1"/>
			</g>
			<g id="left_5_">
				
					<linearGradient id="eye_00000083793370713138020700000018139203115102056362_" gradientUnits="userSpaceOnUse" x1="11.52" y1="32.0552" x2="11.52" y2="24.5352" gradientTransform="matrix(1 0 0 -1 0 42.4252)">
					<stop  offset="0" style="stop-color:#191A33"/>
					<stop  offset="0.872" style="stop-color:#3B426A"/>
				</linearGradient>
				
					<ellipse id="eye_2_" style="fill:url(#eye_00000083793370713138020700000018139203115102056362_);" cx="11.5" cy="14.1" rx="2.8" ry="3.8"/>
				<ellipse id="light" class="st11" cx="10.9" cy="12.9" rx="0.9" ry="1.1"/>
			</g>
		</g>
		<g id="brows_1_">
			
				<linearGradient id="right_00000166633359543837772390000011959705992866285213_" gradientUnits="userSpaceOnUse" x1="29.0909" y1="38.0787" x2="29.0909" y2="34.8417" gradientTransform="matrix(1 0 0 -1 0 42.4252)">
				<stop  offset="0" style="stop-color:#E78E0D"/>
				<stop  offset="1" style="stop-color:#CB6000"/>
			</linearGradient>
			<path id="right_4_" style="fill:url(#right_00000166633359543837772390000011959705992866285213_);" d="M26.5,7.6
				c-0.1,0-0.3,0-0.4-0.1c-0.4-0.2-0.6-0.8-0.4-1.2c0.6-1.2,1.9-1.9,3.4-1.9s2.8,0.8,3.3,1.9c0.2,0.4,0,1-0.4,1.2
				c-0.4,0.2-1,0-1.2-0.4c-0.3-0.6-1-0.9-1.7-0.9c-0.8,0-1.5,0.4-1.7,0.9C27.2,7.4,26.9,7.6,26.5,7.6z"/>
			
				<linearGradient id="left_00000165192614107595579250000011118467297908236166_" gradientUnits="userSpaceOnUse" x1="10.8009" y1="38.0787" x2="10.8009" y2="34.8417" gradientTransform="matrix(1 0 0 -1 0 42.4252)">
				<stop  offset="0" style="stop-color:#E78E0D"/>
				<stop  offset="1" style="stop-color:#CB6000"/>
			</linearGradient>
			<path id="left_4_" style="fill:url(#left_00000165192614107595579250000011118467297908236166_);" d="M13.4,7.6
				c-0.3,0-0.6-0.2-0.8-0.5c-0.3-0.6-1-0.9-1.7-0.9c-0.8,0-1.5,0.4-1.7,0.9C8.8,7.5,8.3,7.7,7.9,7.5C7.4,7.3,7.2,6.7,7.5,6.3
				C8,5.1,9.4,4.3,10.8,4.3c1.5,0,2.8,0.8,3.3,1.9c0.2,0.4,0,1-0.4,1.2C13.6,7.5,13.5,7.6,13.4,7.6z"/>
		</g>
	</g>
</g>
<g id="Layer_6" class="st1">
	<g id="cry" class="st2">
		
			<linearGradient id="circle_00000172417295628591995260000010625118987755807930_" gradientUnits="userSpaceOnUse" x1="20" y1="42.4252" x2="20" y2="2.4252" gradientTransform="matrix(1 0 0 -1 0 42.4252)">
			<stop  offset="0" style="stop-color:#FEEA70"/>
			<stop  offset="1" style="stop-color:#F69B30"/>
		</linearGradient>
		
			<circle id="circle_10_" style="fill:url(#circle_00000172417295628591995260000010625118987755807930_);" cx="20" cy="20" r="20"/>
		<g id="tear">
			
				<linearGradient id="tear_00000014600388834315576520000012273164099001740422_" gradientUnits="userSpaceOnUse" x1="32.7" y1="13.2612" x2="32.7" y2="3.636" gradientTransform="matrix(1 0 0 -1 0 42.4252)">
				<stop  offset="0" style="stop-color:#007EDB"/>
				<stop  offset="1" style="stop-color:#35CAFC"/>
			</linearGradient>
			<path id="tear_2_" style="fill:url(#tear_00000014600388834315576520000012273164099001740422_);" d="M36.9,35.8
				c0,2.3-1.9,4.2-4.2,4.2s-4.2-1.9-4.2-4.2c0-2,3.3-7.6,4-8.9c0.1-0.1,0.2-0.1,0.3,0C33.6,28.2,36.9,33.7,36.9,35.8z"/>
			
				<linearGradient id="light_00000034085578965357239740000015857718060113221774_" gradientUnits="userSpaceOnUse" x1="32.69" y1="13.7754" x2="32.69" y2="8.5589" gradientTransform="matrix(1 0 0 -1 0 42.4252)">
				<stop  offset="0" style="stop-color:#6AE1FF;stop-opacity:0.287"/>
				<stop  offset="1" style="stop-color:#A8E3FF;stop-opacity:0.799"/>
			</linearGradient>
			<path id="light_6_" style="fill:url(#light_00000034085578965357239740000015857718060113221774_);" d="M34.4,32.4
				c0,0.9-0.8,1.7-1.7,1.7S31,33.3,31,32.4c0-0.8,1.3-3,1.6-3.5c0,0,0.1,0,0.1,0C33.1,29.3,34.4,31.5,34.4,32.4z"/>
		</g>
		
			<linearGradient id="mouth_00000161599096832717220660000003922884881670395276_" gradientUnits="userSpaceOnUse" x1="19.9903" y1="12.9452" x2="19.9903" y2="8.0264" gradientTransform="matrix(1 0 0 -1 0 42.4252)">
			<stop  offset="0" style="stop-color:#472315"/>
			<stop  offset="1" style="stop-color:#8B3A0E"/>
		</linearGradient>
		<path id="mouth_3_" style="fill:url(#mouth_00000161599096832717220660000003922884881670395276_);" d="M14.4,34.3
			c-0.3,0.3-0.8-0.2-0.6-0.6c1-2.5,3.4-4.2,6.2-4.2s5.2,1.7,6.2,4.2c0.2,0.4-0.2,0.9-0.6,0.6c-1.6-1.3-3.7-2-5.6-2
			C18.1,32.3,16,33,14.4,34.3z"/>
		<g id="eyes_3_">
			<g id="right_6_">
				
					<linearGradient id="eye_00000157271105868551306200000004809123489106526902_" gradientUnits="userSpaceOnUse" x1="28.26" y1="23.4652" x2="28.26" y2="17.0452" gradientTransform="matrix(1 0 0 -1 0 42.4252)">
					<stop  offset="0" style="stop-color:#191A33"/>
					<stop  offset="0.872" style="stop-color:#3B426A"/>
				</linearGradient>
				
					<ellipse id="eye_5_" style="fill:url(#eye_00000157271105868551306200000004809123489106526902_);" cx="28.3" cy="22.2" rx="2.6" ry="3.2"/>
				<ellipse id="light_5_" class="st11" cx="27.6" cy="21.3" rx="0.9" ry="1"/>
			</g>
			<g id="left_6_">
				
					<linearGradient id="eye_00000027584358177866721110000013046006400298568884_" gradientUnits="userSpaceOnUse" x1="11.74" y1="23.4652" x2="11.74" y2="17.0452" gradientTransform="matrix(1 0 0 -1 0 42.4252)">
					<stop  offset="0" style="stop-color:#191A33"/>
					<stop  offset="0.872" style="stop-color:#3B426A"/>
				</linearGradient>
				
					<ellipse id="eye_4_" style="fill:url(#eye_00000027584358177866721110000013046006400298568884_);" cx="11.7" cy="22.2" rx="2.6" ry="3.2"/>
				<ellipse id="light_3_" class="st11" cx="11" cy="21.3" rx="0.9" ry="1"/>
			</g>
		</g>
		<g id="brows_2_">
			
				<linearGradient id="right_00000047041221723350015350000005097248774399385248_" gradientUnits="userSpaceOnUse" x1="30.1569" y1="29.3261" x2="30.1569" y2="24.1045" gradientTransform="matrix(1 0 0 -1 0 42.4252)">
				<stop  offset="0" style="stop-color:#E78E0D"/>
				<stop  offset="1" style="stop-color:#CB6000"/>
			</linearGradient>
			<path id="right_7_" style="fill:url(#right_00000047041221723350015350000005097248774399385248_);" d="M26.6,14.6
				C26.6,14.6,26.6,14.6,26.6,14.6c1.7,0.4,3.2,1,4.6,1.8c0.7,0.4,1.4,0.9,2,1.4c0.4,0.3,1.1,1.1,1.2,0.1c0-1-2.1-2.7-2.9-3.1
				c-1.1-0.8-3.5-2.1-4.9-1.4C25.8,13.6,25.7,14.4,26.6,14.6z"/>
			
				<linearGradient id="left_00000179631968904152577340000010187089596690407096_" gradientUnits="userSpaceOnUse" x1="9.8431" y1="29.3261" x2="9.8431" y2="24.1045" gradientTransform="matrix(1 0 0 -1 0 42.4252)">
				<stop  offset="0" style="stop-color:#E78E0D"/>
				<stop  offset="1" style="stop-color:#CB6000"/>
			</linearGradient>
			<path id="left_7_" style="fill:url(#left_00000179631968904152577340000010187089596690407096_);" d="M13.4,14.6
				C13.4,14.6,13.4,14.6,13.4,14.6c-1.7,0.4-3.2,1-4.6,1.8c-0.7,0.4-1.4,0.9-2,1.4c-0.4,0.3-1.1,1.1-1.2,0.1c0-1,2.1-2.7,2.9-3.1
				c1.1-0.8,3.4-2.1,4.9-1.4C14.2,13.6,14.3,14.4,13.4,14.6z"/>
		</g>
	</g>
</g>
<g id="Layer_7" class="st1">
	<g id="angry" class="st2">
		
			<linearGradient id="circle_00000060025253290321671630000006632499996296127661_" gradientUnits="userSpaceOnUse" x1="20" y1="42.4252" x2="20" y2="2.4252" gradientTransform="matrix(1 0 0 -1 0 42.4252)">
			<stop  offset="0" style="stop-color:#E04300"/>
			<stop  offset="1" style="stop-color:#FFA320"/>
		</linearGradient>
		<circle id="circle" style="fill:url(#circle_00000060025253290321671630000006632499996296127661_);" cx="20" cy="20" r="20"/>
		
			<linearGradient id="mouth_00000058550018125775274830000011721366514454673030_" gradientUnits="userSpaceOnUse" x1="20.01" y1="11.4052" x2="20.01" y2="7.7852" gradientTransform="matrix(1 0 0 -1 0 42.4252)">
			<stop  offset="0" style="stop-color:#3D0D00"/>
			<stop  offset="1" style="stop-color:#661C04"/>
		</linearGradient>
		<path id="mouth_4_" style="fill:url(#mouth_00000058550018125775274830000011721366514454673030_);" d="M13.5,34.6
			c-0.2,0-0.4-0.1-0.5-0.4c-0.1-0.3-0.1-0.6,0.1-0.8c1.6-1.6,4.1-2.5,6.9-2.5s5.3,0.9,6.9,2.5c0.2,0.2,0.2,0.5,0.1,0.8
			c-0.1,0.2-0.3,0.4-0.5,0.4c0,0-0.1,0-0.1,0c-2.1-0.5-4.3-0.8-6.4-0.8c-2.1,0-4.3,0.3-6.4,0.8C13.6,34.6,13.5,34.6,13.5,34.6z"/>
		<g id="eyes_4_">
			
				<linearGradient id="right_00000053529380931763598390000007001884125790561930_" gradientUnits="userSpaceOnUse" x1="28.12" y1="19.3947" x2="28.12" y2="9.7397" gradientTransform="matrix(1 0 0 -1 0 42.4252)">
				<stop  offset="0" style="stop-color:#191A33"/>
				<stop  offset="0.872" style="stop-color:#3B426A"/>
			</linearGradient>
			<path id="right_3_" style="fill:url(#right_00000053529380931763598390000007001884125790561930_);" d="M28.1,28
				c-1.5,0-2.7-1.4-2.7-3.1c0-0.2,0-0.4,0-0.5l0-0.2l4.9-1.1l0.1,0.2c0.3,0.5,0.4,1.1,0.4,1.7C30.8,26.6,29.6,28,28.1,28z"/>
			
				<linearGradient id="left_00000057846653055197251360000008293785851252029572_" gradientUnits="userSpaceOnUse" x1="11.8601" y1="19.3947" x2="11.8601" y2="9.7397" gradientTransform="matrix(1 0 0 -1 0 42.4252)">
				<stop  offset="0" style="stop-color:#191A33"/>
				<stop  offset="0.872" style="stop-color:#3B426A"/>
			</linearGradient>
			<path id="left_3_" style="fill:url(#left_00000057846653055197251360000008293785851252029572_);" d="M11.9,28
				c-1.5,0-2.7-1.4-2.7-3.1c0-0.6,0.1-1.2,0.4-1.7L9.6,23l4.9,1.1l0,0.2c0,0.2,0,0.4,0,0.5C14.6,26.6,13.4,28,11.9,28z"/>
		</g>
		<g id="brows_3_">
			
				<linearGradient id="right_00000008866356267019081840000009129238222187106179_" gradientUnits="userSpaceOnUse" x1="28.5595" y1="26.7917" x2="28.5595" y2="17.4" gradientTransform="matrix(1 0 0 -1 0 42.4252)">
				<stop  offset="0" style="stop-color:#9A2F00"/>
				<stop  offset="1" style="stop-color:#D44800"/>
			</linearGradient>
			<path id="right_8_" style="fill:url(#right_00000008866356267019081840000009129238222187106179_);" d="M23.7,25
				c-0.3,0-0.5-0.1-0.7-0.2c-0.3-0.2-0.4-0.5-0.4-0.9V20c0-0.6,0.5-1.1,1.1-1.1s1.1,0.5,1.1,1.1v2.4l2.5-0.6
				c0.2-0.1,0.4-0.1,0.6-0.1l5.2-1.2c0.1,0,0.2,0,0.3,0c0.5,0,1,0.4,1.1,0.9c0.1,0.6-0.2,1.2-0.9,1.4L23.9,25
				C23.9,25,23.8,25,23.7,25z"/>
			
				<linearGradient id="left_00000101090668883232243200000000391878607248156083_" gradientUnits="userSpaceOnUse" x1="11.4555" y1="26.7917" x2="11.4555" y2="17.4" gradientTransform="matrix(1 0 0 -1 0 42.4252)">
				<stop  offset="0" style="stop-color:#9A2F00"/>
				<stop  offset="1" style="stop-color:#D44800"/>
			</linearGradient>
			<path id="left_8_" style="fill:url(#left_00000101090668883232243200000000391878607248156083_);" d="M16.3,25
				c-0.1,0-0.2,0-0.3,0l-9.7-2.3c-0.6-0.1-1-0.8-0.9-1.4c0.1-0.5,0.6-0.9,1.1-0.9c0.1,0,0.2,0,0.3,0l5.2,1.2c0.2,0,0.4,0.1,0.6,0.1
				l2.4,0.6V20c0-0.6,0.5-1.1,1.2-1.1c0.6,0,1.1,0.5,1.1,1.1v3.9c0,0.4-0.2,0.7-0.4,0.9C16.8,24.9,16.6,25,16.3,25z"/>
		</g>
	</g>
</g>
<path class="st4" d="M10.1,14.2c-1.3,0.6-2.4,1.9-2.8,3.4C6.9,19.1,7.4,20.9,9,21c0.9,0.1,1.8-0.1,2.6-0.6c0.5-0.3,1-0.7,1.5-1
	c2-1.1,5.1-1,6.2,1.4c1,2.3,1.2,4.9,1,7.5c-0.2,2.5-0.8,5-1.2,7.5c-0.1,0.4-0.1,0.9,0,1.3c0.2,0.7,1.1,1,1.5,0.3
	c0.1-0.2,0.1-0.5,0.1-0.7c0.1-2.3,0.6-4.5,0.8-6.8c0.2-2,0-4,0-6c0-0.9-0.1-1.9,0.1-2.8c0.2-0.9,0.6-1.7,1.1-2.3
	c0.5-0.7,1.2-1.3,2-1.6c2.2-0.9,4.8,0.4,7-0.6c0.3-0.2,0.7-0.4,0.9-0.7c0.4-0.6,0.4-1.5,0.1-2.1c-0.3-0.7-0.9-1.2-1.5-1.6
	c-1.2-0.8-2.7-1.2-4.1-1c-1.4,0.2-2.8,0.9-3.8,2c-0.8,0.9-1.3,2.1-1.6,3.2c-0.3,1.2-0.4,2.4-0.5,3.6c0-0.1-0.1-0.3-0.2-0.4
	c-0.1-0.1-0.1-0.4-0.3-0.5c-0.1-0.1-0.3,0-0.4,0.1c-0.1,0.1-0.2,0.2-0.2,0.3c-0.1,0.2,0,0.4,0,0.6c0,0.2,0,0.5,0.1,0.7
	c-0.1-1-0.4-1.9-0.9-2.8c-0.5-0.9-1.2-1.7-2-2.3c-0.8-0.6-1.7-1.2-2.6-1.5c-0.9-0.3-1.9-0.5-2.8-0.4C11.2,13.8,10.6,13.9,10.1,14.2z
	"/>
</svg>
