<?xml version="1.0" encoding="utf-8"?>
<!-- Generator: Adobe Illustrator 27.0.0, SVG Export Plug-In . SVG Version: 6.00 Build 0)  -->
<svg version="1.1" xmlns="http://www.w3.org/2000/svg" xmlns:xlink="http://www.w3.org/1999/xlink" x="0px" y="0px"
	 viewBox="0 0 40 40" style="enable-background:new 0 0 40 40;" xml:space="preserve">
<style type="text/css">
	.st0{display:none;}
	.st1{display:inline;}
	.st2{fill:url(#circle_00000071524614401293941220000018155850291496121756_);}
	.st3{fill:#FFFFFF;}
	.st4{fill:url(#circle_00000102536190879033248280000000937401924301934980_);}
	.st5{fill:url(#circle_00000055706286540630387510000003024093687178966713_);}
	.st6{fill:url(#heart_00000133494935675887341390000010561416770792979890_);}
	.st7{fill:url(#left_00000007390822735357441700000015481409782327554998_);}
	.st8{fill:url(#right_00000013893326762016751010000010562935386069142970_);}
	.st9{fill:url(#mouth_00000021087827978477967970000002449309324634230689_);}
	.st10{fill:url(#eye_00000062884638171566211390000002801147009802328199_);}
	.st11{fill:#4E506A;}
	.st12{fill:url(#eye_00000101818937273130002540000006017300769545980845_);}
	.st13{fill:url(#left_00000080174872847877378560000018106189209640359101_);}
	.st14{fill:url(#right_00000097467780045328535540000002348863829065551545_);}
	.st15{fill:url(#circle_00000057149976328873243600000007824919540523753108_);}
	.st16{fill:url(#mouth_00000118370629174022291420000015942731485748731032_);}
	.st17{fill:url(#tongue_00000160883978961442097770000009686031579933102488_);}
	.st18{fill:url(#right_00000088831114094814111210000005550361460186245251_);}
	.st19{fill:url(#left_00000121269133562608758970000015442194309636222616_);}
	.st20{fill:url(#circle_00000120529584414194771680000015883039054973020824_);}
	.st21{fill:url(#mouth_00000162347362025192064480000009960132318180852629_);}
	.st22{fill:url(#eye_00000116233738833393604740000008864947235015869584_);}
	.st23{fill:url(#eye_00000120537387093325416650000000946428272171458690_);}
	.st24{fill:url(#right_00000015345423760738046280000005117469390903227577_);}
	.st25{fill:url(#left_00000119818387613864030260000017734906634316909752_);}
	.st26{fill:url(#circle_00000097484711174742458300000003457465813459931568_);}
	.st27{fill:url(#tear_00000070076263986114074500000018177949556959706551_);}
	.st28{fill:url(#light_00000136387779307731890230000012040965172626899597_);}
	.st29{fill:url(#mouth_00000020358192115067651490000014344015352698021524_);}
	.st30{fill:url(#eye_00000116219047355810711100000014230326900500819886_);}
	.st31{fill:url(#eye_00000183946540822406734280000013999360806444781713_);}
	.st32{fill:url(#right_00000002359377602439225000000016921932758888439966_);}
	.st33{fill:url(#left_00000085930492769970613650000013564798540001836470_);}
	.st34{fill:url(#circle_00000164479773950189603620000010854851623155591572_);}
	.st35{fill:url(#mouth_00000021109162070211234770000013577213609579379860_);}
	.st36{fill:url(#right_00000010296364088652873710000014400000307974663859_);}
	.st37{fill:url(#left_00000141416901543095407290000000864186861098988203_);}
	.st38{fill:url(#right_00000157298333618310418420000002817993067503891130_);}
	.st39{fill:url(#left_00000059997877470655613540000003544108578173837700_);}
</style>
<g id="Layer_1" class="st0">
	<g id="like_00000156557318938043782220000011018954137205030070_" class="st1">
		
			<linearGradient id="circle_00000154410722080293673760000012457185378491784888_" gradientUnits="userSpaceOnUse" x1="20" y1="0" x2="20" y2="40">
			<stop  offset="0" style="stop-color:#18AFFF"/>
			<stop  offset="1" style="stop-color:#0062DF"/>
		</linearGradient>
		
			<circle id="circle_32_" style="fill:url(#circle_00000154410722080293673760000012457185378491784888_);" cx="20" cy="20" r="20"/>
		<g id="like_icon_1_">
			<path class="st3" d="M27.95,26.96c0,0.08,0.03,0.16,0.08,0.23c0.15,0.22,0.24,0.48,0.24,0.77c0,0.74-0.6,1.35-1.34,1.35h-3.01
				h-5.09h0c-1.3,0-2.35-1.05-2.35-2.35v-1.9c0-1.84-0.19-3.74,0.36-5.52c0.41-1.32,1.42-2.35,2.09-3.53
				c0.84-1.48,0.5-3.07,0.64-4.67c0.09-1.08,0.99-1.58,2-1.31c1.24,0.33,1.86,1.56,1.92,2.78c0.06,1.34-0.25,2.72-0.81,3.97
				c-0.09,0.19,0.05,0.41,0.27,0.41h0.99h4.75c0.87,0,1.6,0.7,1.61,1.57c0,0.53-0.26,1.01-0.67,1.29c-0.09,0.07-0.15,0.17-0.15,0.29
				l0,0c0,0.11,0.05,0.22,0.15,0.29c0.07,0.05,0.14,0.11,0.21,0.17c0.28,0.29,0.46,0.68,0.46,1.11c0,0.67-0.41,1.23-1,1.46
				c-0.18,0.07-0.3,0.24-0.3,0.44v0c0,0.1,0.03,0.2,0.09,0.28c0.2,0.27,0.33,0.6,0.33,0.96c0,0.72-0.48,1.33-1.14,1.51
				c-0.17,0.05-0.29,0.2-0.29,0.38V26.96z"/>
			<path class="st3" d="M11.49,30.05h1.39c0.97,0,1.76-0.79,1.76-1.76v-7.97c0-0.97-0.79-1.76-1.76-1.76h-1.39
				c-0.97,0-1.76,0.79-1.76,1.76v7.97C9.73,29.26,10.52,30.05,11.49,30.05z"/>
		</g>
	</g>
</g>
<g id="Layer_2" class="st0">
	<g id="love" class="st1">
		
			<linearGradient id="circle_00000052810557961375932990000009915223045531488191_" gradientUnits="userSpaceOnUse" x1="20" y1="-1.818989e-12" x2="20" y2="40">
			<stop  offset="0" style="stop-color:#FF6680"/>
			<stop  offset="1" style="stop-color:#E61739"/>
		</linearGradient>
		
			<circle id="circle_11_" style="fill:url(#circle_00000052810557961375932990000009915223045531488191_);" cx="20" cy="20" r="20"/>
		<path id="heart_icon_1_" class="st3" d="M25.9,11.05c-2.41,0-4.51,1.39-5.6,3.45c-0.13,0.24-0.47,0.24-0.6,0
			c-1.09-2.06-3.19-3.45-5.6-3.45c-3.54,0-6.4,3-6.4,6.69c0,8.04,7.38,12.05,12.14,14.75c0.1,0.06,0.23,0.06,0.33,0
			c4.76-2.7,12.14-6.71,12.14-14.75C32.31,14.05,29.44,11.05,25.9,11.05z"/>
	</g>
</g>
<g id="Layer_3" class="st0">
	<g id="care" class="st1">
		
			<linearGradient id="circle_00000008862868682771813950000005727408061764220040_" gradientUnits="userSpaceOnUse" x1="20.0009" y1="-5.012371e-04" x2="20.0009" y2="40.0005">
			<stop  offset="0" style="stop-color:#FEEA70"/>
			<stop  offset="1" style="stop-color:#F69B30"/>
		</linearGradient>
		<path id="circle_5_" style="fill:url(#circle_00000008862868682771813950000005727408061764220040_);" d="M40,20
			c0,3.89-1.11,7.53-3.04,10.6C33.43,36.24,27.15,40,20,40C8.95,40,0,31.05,0,20C0,8.95,8.95,0,20,0c8.74,0,16.17,5.61,18.89,13.43
			C39.61,15.49,40,17.7,40,20z"/>
		
			<linearGradient id="heart_00000178206004216653580790000006701780180219553411_" gradientUnits="userSpaceOnUse" x1="19.0567" y1="20.0278" x2="11.7365" y2="36.9204">
			<stop  offset="0" style="stop-color:#FC607C"/>
			<stop  offset="1" style="stop-color:#D91F3A"/>
		</linearGradient>
		<path id="heart_1_" style="fill:url(#heart_00000178206004216653580790000006701780180219553411_);" d="M24.63,20.47
			c-2.36-0.74-4.84-0.03-6.54,1.65c-0.2,0.19-0.53,0.09-0.58-0.18c-0.43-2.35-2.05-4.36-4.41-5.1c-3.45-1.09-7.18,0.95-8.32,4.56
			c-2.48,7.86,3.49,14.04,7.31,18.15c0.08,0.09,0.21,0.13,0.33,0.1c5.48-1.17,13.92-2.81,16.4-10.67
			C29.96,25.37,28.09,21.56,24.63,20.47z"/>
		<g id="hands">
			
				<radialGradient id="left_00000064317510898068159050000011316554533977174198_" cx="1.8922" cy="17.3911" r="17.812" gradientUnits="userSpaceOnUse">
				<stop  offset="0" style="stop-color:#FFDC5E"/>
				<stop  offset="1" style="stop-color:#EDA83A"/>
			</radialGradient>
			<path id="left" style="fill:url(#left_00000064317510898068159050000011316554533977174198_);" d="M13.89,30.68
				c-1.23,0.54-2.58,0.76-3.92,0.72c-1.77-0.06-3.34-0.51-4.73-1.27c-1.62-0.89-3.01-2.21-4.23-3.83C0.36,24.32,0,22.2,0,20
				c0-1.79,0.23-3.52,0.67-5.17c1.21,2.46,2.57,4.52,4.41,5.79c1.84,1.27,4.17,1.74,7.3,0.99c0.65-0.15,1.26,0.4,1.15,1.06
				c-0.07,0.46-0.47,0.85-1.03,1.14c-0.11,0.06-0.07,0.23,0.06,0.22c0.37-0.01,0.86-0.01,1.21,0c1.49,0.06,2.72,1.22,2.83,2.71
				C16.72,28.32,16.11,29.71,13.89,30.68z"/>
			
				<linearGradient id="right_00000049913901511738278270000008828466836840142990_" gradientUnits="userSpaceOnUse" x1="33.5554" y1="18.3787" x2="26.4352" y2="36.2492">
				<stop  offset="0" style="stop-color:#FFDC5E"/>
				<stop  offset="1" style="stop-color:#EDA83A"/>
			</linearGradient>
			<path id="right" style="fill:url(#right_00000049913901511738278270000008828466836840142990_);" d="M40,20
				c0,0.24-0.01,0.48-0.01,0.73c0,0.12-0.01,0.24-0.02,0.36c-0.02,0.36-0.05,0.72-0.09,1.07c-0.01,0.12-0.02,0.24-0.04,0.36
				c-0.03,0.25-0.07,0.5-0.11,0.75c-0.02,0.1-0.03,0.2-0.05,0.3c-0.02,0.12-0.04,0.23-0.07,0.34c-0.02,0.12-0.04,0.23-0.07,0.34
				c-0.05,0.23-0.1,0.45-0.16,0.68c-0.08,0.33-0.17,0.64-0.27,0.96c0,0,0,0,0,0c-0.91,1.63-1.98,3.21-3.17,4.63
				c-0.76,0.91-1.56,1.75-2.39,2.5c-2.15,1.93-4.53,3.27-6.94,3.57c-1.29,0.16-2.6,0.07-3.84-0.33c-0.04-0.01-0.09-0.02-0.13-0.04
				c-2.3-0.77-3.03-2.1-3.05-3.68c-0.02-1.49,1.09-2.76,2.57-2.95c0.35-0.05,0.83-0.09,1.2-0.11c0.12-0.01,0.15-0.18,0.04-0.23
				c-0.58-0.23-1.01-0.59-1.12-1.04c-0.17-0.65,0.39-1.26,1.05-1.16c2.19,0.32,4.11-0.03,5.79-0.86c0.11-0.05,0.22-0.11,0.33-0.17
				c2.46-1.32,4.43-3.67,6.06-6.47c1.22-2.09,2.25-4.43,3.15-6.77c0.08,0.21,0.16,0.42,0.23,0.63c0.04,0.12,0.09,0.25,0.13,0.37
				c0.01,0.02,0.01,0.03,0.02,0.05c0.04,0.12,0.07,0.24,0.11,0.36c0.04,0.13,0.08,0.26,0.11,0.39c0.21,0.73,0.37,1.48,0.49,2.24
				c0.02,0.12,0.04,0.23,0.05,0.35c0,0.02,0.01,0.03,0.01,0.04c0.02,0.1,0.03,0.21,0.04,0.32c0.01,0.1,0.03,0.21,0.04,0.32
				c0.01,0.09,0.02,0.19,0.03,0.28c0.01,0.12,0.02,0.24,0.03,0.36c0.01,0.1,0.02,0.2,0.02,0.31c0.01,0.11,0.01,0.22,0.02,0.34
				C39.99,19.43,40,19.71,40,20z"/>
		</g>
		
			<linearGradient id="mouth_00000182494930682031187450000012323442585691210127_" gradientUnits="userSpaceOnUse" x1="20.0006" y1="14.2256" x2="20.0006" y2="16.1894">
			<stop  offset="0" style="stop-color:#482314"/>
			<stop  offset="1" style="stop-color:#9A4111"/>
		</linearGradient>
		<path id="mouth" style="fill:url(#mouth_00000182494930682031187450000012323442585691210127_);" d="M16.18,14.23
			c-0.22,0-0.36,0.23-0.27,0.42c0.41,0.88,2.09,1.54,4.09,1.54s3.68-0.66,4.09-1.54c0.09-0.2-0.05-0.42-0.27-0.42H16.18z"/>
		<g id="eyes">
			<g id="right_1_">
				
					<radialGradient id="eye_00000031186940848830519800000006783147315018071467_" cx="27.6918" cy="10.5951" r="4.1925" gradientUnits="userSpaceOnUse">
					<stop  offset="0" style="stop-color:#3B446B"/>
					<stop  offset="0.688" style="stop-color:#202340"/>
				</radialGradient>
				<path id="eye" style="fill:url(#eye_00000031186940848830519800000006783147315018071467_);" d="M25.5,11.47
					c1.04,1.04,3.11,1.39,4.15,0.34s0.6-3.6-0.44-4.64s-2.35-1.02-3.39,0.02S24.46,10.43,25.5,11.47z"/>
				<circle id="light_4_" class="st11" cx="26.72" cy="7.96" r="0.83"/>
			</g>
			<g id="left_2_">
				
					<radialGradient id="eye_00000014598057796172309620000012641036486645860534_" cx="22.4299" cy="10.5951" r="4.1925" gradientTransform="matrix(-1 0 0 1 34.7393 0)" gradientUnits="userSpaceOnUse">
					<stop  offset="0" style="stop-color:#3B446B"/>
					<stop  offset="0.688" style="stop-color:#202340"/>
				</radialGradient>
				<path id="eye_1_" style="fill:url(#eye_00000014598057796172309620000012641036486645860534_);" d="M14.5,11.47
					c-1.04,1.04-3.11,1.39-4.15,0.34s-0.6-3.6,0.44-4.64s2.35-1.02,3.39,0.02S15.54,10.43,14.5,11.47z"/>
				<circle id="light_1_" class="st11" cx="13.28" cy="7.96" r="0.83"/>
			</g>
		</g>
		<g id="brows">
			
				<radialGradient id="left_00000083789552809553607010000018197757946521010088_" cx="11.486" cy="2.7958" r="2.5123" gradientUnits="userSpaceOnUse">
				<stop  offset="0" style="stop-color:#E38200"/>
				<stop  offset="1" style="stop-color:#CD6700"/>
			</radialGradient>
			<path id="left_1_" style="fill:url(#left_00000083789552809553607010000018197757946521010088_);" d="M15.49,3.95
				c-2.52-0.02-5.03,0.56-7.22,1.81C8.11,5.85,7.91,5.83,7.79,5.7c0,0,0,0-0.01-0.01C7.61,5.53,7.63,5.26,7.8,5.11
				C8.42,4.58,9.84,3.63,10,3.53c1.74-1.01,3.8-1.6,5.72-0.88c0.26,0.1,0.43,0.34,0.43,0.62c0,0.01,0,0.01,0,0.02
				C16.16,3.66,15.86,3.96,15.49,3.95z"/>
			
				<radialGradient id="right_00000156561494522438178460000017257813990224396957_" cx="-61.1515" cy="2.7958" r="2.5123" gradientTransform="matrix(-1 0 0 1 -32.6328 0)" gradientUnits="userSpaceOnUse">
				<stop  offset="0" style="stop-color:#E38200"/>
				<stop  offset="1" style="stop-color:#CD6700"/>
			</radialGradient>
			<path id="right_2_" style="fill:url(#right_00000156561494522438178460000017257813990224396957_);" d="M24.52,3.95
				c2.52-0.02,5.03,0.56,7.22,1.81c0.16,0.09,0.35,0.06,0.48-0.07c0,0,0,0,0.01-0.01c0.17-0.17,0.15-0.44-0.02-0.59
				c-0.62-0.52-2.03-1.48-2.2-1.58c-1.74-1.01-3.8-1.6-5.72-0.88c-0.26,0.1-0.43,0.34-0.43,0.62c0,0.01,0,0.01,0,0.02
				C23.85,3.66,24.15,3.96,24.52,3.95z"/>
		</g>
	</g>
</g>
<g id="Layer_4">
	<g id="haha">
		
			<linearGradient id="circle_00000090267142672504049740000017275466089066105012_" gradientUnits="userSpaceOnUse" x1="20" y1="-1.818989e-12" x2="20" y2="40">
			<stop  offset="0" style="stop-color:#FEEA70"/>
			<stop  offset="1" style="stop-color:#F69B30"/>
		</linearGradient>
		
			<circle id="circle_34_" style="fill:url(#circle_00000090267142672504049740000017275466089066105012_);" cx="20" cy="20" r="20"/>
		
			<linearGradient id="mouth_00000183210164901031531380000015365158142133982887_" gradientUnits="userSpaceOnUse" x1="20.0182" y1="17.1817" x2="20.0182" y2="34.4967">
			<stop  offset="0" style="stop-color:#472315"/>
			<stop  offset="1" style="stop-color:#8B3A0E"/>
		</linearGradient>
		<path id="mouth_1_" style="fill:url(#mouth_00000183210164901031531380000015365158142133982887_);" d="M33.75,21.01
			c-0.27,3.9-1.99,7.37-4.59,9.81c0,0,0,0-0.01,0.01l-0.01,0.01c-2.43,2.27-5.62,3.65-9.12,3.65s-6.69-1.37-9.12-3.64
			c0,0-0.01-0.01-0.01-0.02c0,0-0.01,0-0.01-0.01c-2.6-2.44-4.32-5.91-4.59-9.81c-0.05-0.74,0.35-1.44,1-1.79
			c5.01-2.67,20.4-2.77,25.46,0C33.4,19.57,33.8,20.27,33.75,21.01z"/>
		
			<linearGradient id="tongue_00000152235844994715459590000013926928163763941005_" gradientUnits="userSpaceOnUse" x1="20.0162" y1="27.5411" x2="20.0162" y2="34.4967">
			<stop  offset="0" style="stop-color:#FC607C"/>
			<stop  offset="1" style="stop-color:#D91F3A"/>
		</linearGradient>
		<path id="tongue" style="fill:url(#tongue_00000152235844994715459590000013926928163763941005_);" d="M29.15,30.83l-0.01,0.01
			c-2.43,2.27-5.62,3.65-9.12,3.65s-6.69-1.37-9.12-3.64c0,0-0.01-0.01-0.01-0.02c2.02-1.99,5.36-3.29,9.13-3.29
			S27.13,28.84,29.15,30.83z"/>
		<g id="eyes_1_">
			
				<linearGradient id="right_00000054252348131426421760000007375914423597286796_" gradientUnits="userSpaceOnUse" x1="28.2729" y1="8.7175" x2="28.2729" y2="15.2713">
				<stop  offset="0" style="stop-color:#191A33"/>
				<stop  offset="0.872" style="stop-color:#3B426A"/>
			</linearGradient>
			<path id="right_9_" style="fill:url(#right_00000054252348131426421760000007375914423597286796_);" d="M32.17,15.27
				c-0.14,0-0.27-0.03-0.39-0.09c-1.51-0.72-3.23-1.1-4.96-1.1c-0.76,0-1.52,0.07-2.26,0.22c-0.06,0.01-0.11,0.02-0.17,0.02
				c-0.34,0-0.65-0.18-0.81-0.48c-0.19-0.35-0.13-0.79,0.16-1.07c2.04-2.07,4.89-3.5,8.01-4.03c0.05-0.01,0.1-0.01,0.15-0.01
				c0.45,0,0.82,0.32,0.9,0.76c0.08,0.5-0.25,0.97-0.75,1.05c-1.53,0.26-3.03,0.77-4.33,1.5l-0.42,0.23l0.47,0.03
				c1.67,0.12,3.33,0.55,4.79,1.25c0.22,0.1,0.39,0.29,0.47,0.52c0.08,0.23,0.07,0.48-0.04,0.7C32.84,15.07,32.52,15.27,32.17,15.27
				z"/>
			
				<linearGradient id="left_00000145024762032265502390000014317863724939504300_" gradientUnits="userSpaceOnUse" x1="11.5975" y1="8.7175" x2="11.5975" y2="15.2713">
				<stop  offset="0" style="stop-color:#191A33"/>
				<stop  offset="0.872" style="stop-color:#3B426A"/>
			</linearGradient>
			<path id="left_9_" style="fill:url(#left_00000145024762032265502390000014317863724939504300_);" d="M7.7,15.27
				c-0.35,0-0.67-0.2-0.82-0.52c-0.1-0.22-0.12-0.47-0.04-0.7c0.08-0.23,0.25-0.41,0.47-0.52c1.46-0.7,3.12-1.13,4.79-1.25
				l0.47-0.03l-0.42-0.23c-1.31-0.72-2.81-1.24-4.34-1.5c-0.5-0.08-0.83-0.56-0.75-1.05c0.07-0.44,0.45-0.76,0.9-0.76
				c0.05,0,0.1,0,0.16,0.01c3.13,0.53,5.97,1.96,8.01,4.03c0.28,0.29,0.35,0.72,0.16,1.07c-0.16,0.3-0.47,0.48-0.81,0.48
				c-0.06,0-0.11-0.01-0.17-0.02c-0.74-0.14-1.5-0.22-2.26-0.22c-1.74,0-3.45,0.38-4.96,1.1C7.97,15.24,7.84,15.27,7.7,15.27z"/>
		</g>
	</g>
</g>
<g id="Layer_5" class="st0">
	<g id="wow" class="st1">
		
			<linearGradient id="circle_00000065063501614517187940000009912569861265035447_" gradientUnits="userSpaceOnUse" x1="20" y1="-9.094947e-13" x2="20" y2="40">
			<stop  offset="0" style="stop-color:#FEEA70"/>
			<stop  offset="1" style="stop-color:#F69B30"/>
		</linearGradient>
		<circle id="circle_2_" style="fill:url(#circle_00000065063501614517187940000009912569861265035447_);" cx="20" cy="20" r="20"/>
		
			<linearGradient id="mouth_00000106114231820831181390000000779569980143006888_" gradientUnits="userSpaceOnUse" x1="19.9499" y1="20.9842" x2="19.9499" y2="35.5324">
			<stop  offset="0" style="stop-color:#472315"/>
			<stop  offset="1" style="stop-color:#8B3A0E"/>
		</linearGradient>
		<path id="mouth_2_" style="fill:url(#mouth_00000106114231820831181390000000779569980143006888_);" d="M14.25,29.87
			c0,3.13,2.55,5.66,5.7,5.66h0h0c3.15,0,5.7-2.54,5.7-5.66v0c0-1.07-0.05-2.15-0.16-3.22l-0.07-0.75
			c-0.28-2.79-2.64-4.92-5.47-4.92h0h0c-2.83,0-5.19,2.13-5.47,4.92l-0.07,0.75C14.3,27.72,14.25,28.8,14.25,29.87L14.25,29.87z"/>
		<g id="eyes_2_">
			<g id="right_5_">
				
					<linearGradient id="eye_00000058578836109529230920000012480392453361310103_" gradientUnits="userSpaceOnUse" x1="28.3775" y1="10.3676" x2="28.3775" y2="17.8887">
					<stop  offset="0" style="stop-color:#191A33"/>
					<stop  offset="0.872" style="stop-color:#3B426A"/>
				</linearGradient>
				
					<ellipse id="eye_3_" style="fill:url(#eye_00000058578836109529230920000012480392453361310103_);" cx="28.38" cy="14.13" rx="2.77" ry="3.76"/>
				<ellipse id="light_2_" class="st11" cx="27.73" cy="12.91" rx="0.86" ry="1.1"/>
			</g>
			<g id="left_5_">
				
					<linearGradient id="eye_00000018950669977252696900000017363190888760932483_" gradientUnits="userSpaceOnUse" x1="11.5223" y1="10.3676" x2="11.5223" y2="17.8887">
					<stop  offset="0" style="stop-color:#191A33"/>
					<stop  offset="0.872" style="stop-color:#3B426A"/>
				</linearGradient>
				
					<ellipse id="eye_2_" style="fill:url(#eye_00000018950669977252696900000017363190888760932483_);" cx="11.52" cy="14.13" rx="2.77" ry="3.76"/>
				<ellipse id="light" class="st11" cx="10.88" cy="12.91" rx="0.86" ry="1.1"/>
			</g>
		</g>
		<g id="brows_1_">
			
				<linearGradient id="right_00000163031298633005939480000001506640001689360298_" gradientUnits="userSpaceOnUse" x1="29.0962" y1="4.3465" x2="29.0962" y2="7.5835">
				<stop  offset="0" style="stop-color:#E78E0D"/>
				<stop  offset="1" style="stop-color:#CB6000"/>
			</linearGradient>
			<path id="right_4_" style="fill:url(#right_00000163031298633005939480000001506640001689360298_);" d="M26.55,7.58
				c-0.13,0-0.27-0.03-0.4-0.09c-0.44-0.22-0.63-0.76-0.41-1.2c0.58-1.18,1.9-1.94,3.35-1.94c1.45,0,2.77,0.76,3.35,1.94
				c0.22,0.44,0.04,0.98-0.41,1.2c-0.44,0.22-0.98,0.04-1.2-0.41c-0.28-0.56-0.98-0.94-1.74-0.94c-0.77,0-1.47,0.38-1.74,0.94
				C27.2,7.4,26.88,7.58,26.55,7.58z"/>
			
				<linearGradient id="left_00000104664714767396687900000003907846891910542249_" gradientUnits="userSpaceOnUse" x1="10.8035" y1="4.3465" x2="10.8035" y2="7.5835">
				<stop  offset="0" style="stop-color:#E78E0D"/>
				<stop  offset="1" style="stop-color:#CB6000"/>
			</linearGradient>
			<path id="left_4_" style="fill:url(#left_00000104664714767396687900000003907846891910542249_);" d="M13.35,7.58
				c-0.33,0-0.65-0.18-0.81-0.5c-0.28-0.56-0.98-0.94-1.74-0.94c-0.76,0-1.46,0.38-1.74,0.94C8.84,7.53,8.3,7.71,7.86,7.49
				c-0.44-0.22-0.63-0.76-0.41-1.2c0.58-1.18,1.9-1.94,3.35-1.94c1.46,0,2.77,0.76,3.35,1.94c0.22,0.44,0.04,0.98-0.41,1.2
				C13.62,7.55,13.48,7.58,13.35,7.58z"/>
		</g>
	</g>
</g>
<g id="Layer_6" class="st0">
	<g id="cry" class="st1">
		
			<linearGradient id="circle_00000123432674284165946090000005526143112396710037_" gradientUnits="userSpaceOnUse" x1="20" y1="0" x2="20" y2="40">
			<stop  offset="0" style="stop-color:#FEEA70"/>
			<stop  offset="1" style="stop-color:#F69B30"/>
		</linearGradient>
		
			<circle id="circle_10_" style="fill:url(#circle_00000123432674284165946090000005526143112396710037_);" cx="20" cy="20" r="20"/>
		<g id="tear">
			
				<linearGradient id="tear_00000099645574498354416410000002457284866693243557_" gradientUnits="userSpaceOnUse" x1="32.6916" y1="29.164" x2="32.6916" y2="38.7892">
				<stop  offset="0" style="stop-color:#007EDB"/>
				<stop  offset="1" style="stop-color:#35CAFC"/>
			</linearGradient>
			<path id="tear_2_" style="fill:url(#tear_00000099645574498354416410000002457284866693243557_);" d="M36.89,35.8
				c0,2.32-1.88,4.19-4.19,4.19s-4.19-1.88-4.19-4.19c0-2.05,3.28-7.62,4.04-8.88c0.07-0.12,0.24-0.12,0.31,0
				C33.61,28.18,36.89,33.75,36.89,35.8z"/>
			
				<linearGradient id="light_00000139277346516999186520000013198557037042913435_" gradientUnits="userSpaceOnUse" x1="32.6916" y1="28.6498" x2="32.6916" y2="33.8663">
				<stop  offset="0" style="stop-color:#6AE1FF;stop-opacity:0.287"/>
				<stop  offset="1" style="stop-color:#A8E3FF;stop-opacity:0.799"/>
			</linearGradient>
			<path id="light_6_" style="fill:url(#light_00000139277346516999186520000013198557037042913435_);" d="M34.37,32.37
				c0,0.93-0.75,1.68-1.68,1.68c-0.93,0-1.68-0.75-1.68-1.68c0-0.82,1.31-3.05,1.62-3.55c0.03-0.05,0.1-0.05,0.12,0
				C33.06,29.33,34.37,31.55,34.37,32.37z"/>
		</g>
		
			<linearGradient id="mouth_00000012435986569191672060000011414950477499520650_" gradientUnits="userSpaceOnUse" x1="20" y1="29.4799" x2="20" y2="34.3964">
			<stop  offset="0" style="stop-color:#472315"/>
			<stop  offset="1" style="stop-color:#8B3A0E"/>
		</linearGradient>
		<path id="mouth_3_" style="fill:url(#mouth_00000012435986569191672060000011414950477499520650_);" d="M14.36,34.32
			c-0.33,0.26-0.75-0.17-0.58-0.61c0.97-2.49,3.42-4.23,6.21-4.23c2.79,0,5.23,1.73,6.21,4.22c0.17,0.44-0.24,0.87-0.57,0.61
			c-1.63-1.27-3.69-2.03-5.63-2.03C18.06,32.28,15.99,33.04,14.36,34.32z"/>
		<g id="eyes_3_">
			<g id="right_6_">
				
					<linearGradient id="eye_00000005240461837618498780000012531193774549728173_" gradientUnits="userSpaceOnUse" x1="28.2553" y1="18.9598" x2="28.2553" y2="25.3767">
					<stop  offset="0" style="stop-color:#191A33"/>
					<stop  offset="0.872" style="stop-color:#3B426A"/>
				</linearGradient>
				
					<ellipse id="eye_5_" style="fill:url(#eye_00000005240461837618498780000012531193774549728173_);" cx="28.26" cy="22.17" rx="2.65" ry="3.21"/>
				<ellipse id="light_5_" class="st11" cx="27.61" cy="21.35" rx="0.86" ry="1"/>
			</g>
			<g id="left_6_">
				
					<linearGradient id="eye_00000106832023915704861370000003155787020657550226_" gradientUnits="userSpaceOnUse" x1="11.7447" y1="18.9598" x2="11.7447" y2="25.3767">
					<stop  offset="0" style="stop-color:#191A33"/>
					<stop  offset="0.872" style="stop-color:#3B426A"/>
				</linearGradient>
				
					<ellipse id="eye_4_" style="fill:url(#eye_00000106832023915704861370000003155787020657550226_);" cx="11.74" cy="22.17" rx="2.65" ry="3.21"/>
				<ellipse id="light_3_" class="st11" cx="11" cy="21.35" rx="0.86" ry="1"/>
			</g>
		</g>
		<g id="brows_2_">
			
				<linearGradient id="right_00000079476596701861411420000008509003928836867770_" gradientUnits="userSpaceOnUse" x1="30.1582" y1="13.0971" x2="30.1582" y2="18.3203">
				<stop  offset="0" style="stop-color:#E78E0D"/>
				<stop  offset="1" style="stop-color:#CB6000"/>
			</linearGradient>
			<path id="right_7_" style="fill:url(#right_00000079476596701861411420000008509003928836867770_);" d="M26.58,14.57
				c0.02,0.01,0.05,0.01,0.07,0.02c1.61,0.35,3.14,0.94,4.53,1.74c0.72,0.41,1.4,0.89,2.04,1.4c0.44,0.34,1.14,1.09,1.16,0.09
				c0.04-1.01-2.1-2.65-2.87-3.14c-1.14-0.8-3.45-2.05-4.94-1.4C25.77,13.62,25.67,14.38,26.58,14.57z"/>
			
				<linearGradient id="left_00000038400272906664902900000006537583014545550774_" gradientUnits="userSpaceOnUse" x1="9.8418" y1="13.0971" x2="9.8418" y2="18.3203">
				<stop  offset="0" style="stop-color:#E78E0D"/>
				<stop  offset="1" style="stop-color:#CB6000"/>
			</linearGradient>
			<path id="left_7_" style="fill:url(#left_00000038400272906664902900000006537583014545550774_);" d="M13.42,14.57
				c-0.02,0.01-0.05,0.01-0.07,0.02c-1.61,0.35-3.14,0.94-4.53,1.74c-0.72,0.41-1.4,0.89-2.04,1.4c-0.44,0.34-1.14,1.09-1.16,0.09
				c-0.04-1.01,2.1-2.65,2.87-3.14c1.14-0.8,3.45-2.05,4.94-1.4C14.23,13.62,14.33,14.38,13.42,14.57z"/>
		</g>
	</g>
</g>
<g id="Layer_7" class="st0">
	<g id="angry" class="st1">
		
			<linearGradient id="circle_00000048459848663964888470000007816608297984002225_" gradientUnits="userSpaceOnUse" x1="20" y1="1.818989e-12" x2="20" y2="40">
			<stop  offset="0" style="stop-color:#E04300"/>
			<stop  offset="1" style="stop-color:#FFA320"/>
		</linearGradient>
		<circle id="circle" style="fill:url(#circle_00000048459848663964888470000007816608297984002225_);" cx="20" cy="20" r="20"/>
		
			<linearGradient id="mouth_00000146496416561183754710000003983160350416653964_" gradientUnits="userSpaceOnUse" x1="20" y1="31.019" x2="20" y2="34.6363">
			<stop  offset="0" style="stop-color:#3D0D00"/>
			<stop  offset="1" style="stop-color:#661C04"/>
		</linearGradient>
		<path id="mouth_4_" style="fill:url(#mouth_00000146496416561183754710000003983160350416653964_);" d="M13.49,34.64
			c-0.23,0-0.43-0.14-0.52-0.38c-0.11-0.26-0.05-0.56,0.14-0.75c1.56-1.56,4.14-2.49,6.9-2.49c2.76,0,5.34,0.93,6.9,2.49
			c0.19,0.19,0.25,0.48,0.14,0.75c-0.1,0.23-0.3,0.38-0.52,0.38c-0.04,0-0.09-0.01-0.13-0.02c-2.12-0.51-4.27-0.76-6.38-0.76
			c-2.12,0-4.27,0.26-6.39,0.76C13.57,34.63,13.53,34.64,13.49,34.64z"/>
		<g id="eyes_4_">
			
				<linearGradient id="right_00000037660340150180118370000013487356188338065333_" gradientUnits="userSpaceOnUse" x1="28.1259" y1="23.0305" x2="28.1259" y2="32.6855">
				<stop  offset="0" style="stop-color:#191A33"/>
				<stop  offset="0.872" style="stop-color:#3B426A"/>
			</linearGradient>
			<path id="right_3_" style="fill:url(#right_00000037660340150180118370000013487356188338065333_);" d="M28.13,28
				c-1.5,0-2.72-1.41-2.72-3.15c0-0.17,0.01-0.35,0.04-0.54l0.02-0.16l4.87-1.13l0.08,0.16c0.27,0.5,0.41,1.08,0.41,1.67
				C30.84,26.59,29.62,28,28.13,28z"/>
			
				<linearGradient id="left_00000177474385289203008620000007393933492325603471_" gradientUnits="userSpaceOnUse" x1="11.8732" y1="23.0305" x2="11.8732" y2="32.6855">
				<stop  offset="0" style="stop-color:#191A33"/>
				<stop  offset="0.872" style="stop-color:#3B426A"/>
			</linearGradient>
			<path id="left_3_" style="fill:url(#left_00000177474385289203008620000007393933492325603471_);" d="M11.87,28
				c-1.5,0-2.72-1.41-2.72-3.15c0-0.59,0.14-1.16,0.41-1.67l0.08-0.16l4.87,1.13l0.02,0.16c0.03,0.19,0.04,0.36,0.04,0.54
				C14.59,26.59,13.37,28,11.87,28z"/>
		</g>
		<g id="brows_3_">
			
				<linearGradient id="right_00000134969414497126401700000016025451794684453022_" gradientUnits="userSpaceOnUse" x1="28.5443" y1="15.6335" x2="28.5443" y2="25.0252">
				<stop  offset="0" style="stop-color:#9A2F00"/>
				<stop  offset="1" style="stop-color:#D44800"/>
			</linearGradient>
			<path id="right_8_" style="fill:url(#right_00000134969414497126401700000016025451794684453022_);" d="M23.68,25.03
				c-0.26,0-0.51-0.09-0.71-0.25c-0.28-0.22-0.43-0.55-0.43-0.9V20c0-0.63,0.51-1.15,1.15-1.15s1.15,0.51,1.15,1.15v2.43l2.46-0.57
				c0.19-0.08,0.42-0.13,0.65-0.15l5.22-1.21c0.09-0.02,0.17-0.03,0.26-0.03c0.54,0,1,0.37,1.12,0.89c0.14,0.62-0.24,1.23-0.86,1.38
				L23.94,25C23.85,25.02,23.77,25.03,23.68,25.03z"/>
			
				<linearGradient id="left_00000126314730786012465630000003137242972545673109_" gradientUnits="userSpaceOnUse" x1="11.4551" y1="15.6335" x2="11.4551" y2="25.0252">
				<stop  offset="0" style="stop-color:#9A2F00"/>
				<stop  offset="1" style="stop-color:#D44800"/>
			</linearGradient>
			<path id="left_8_" style="fill:url(#left_00000126314730786012465630000003137242972545673109_);" d="M16.32,25.03
				c-0.09,0-0.17-0.01-0.26-0.03l-9.73-2.26c-0.62-0.14-1-0.76-0.86-1.38c0.12-0.52,0.58-0.89,1.12-0.89c0.09,0,0.17,0.01,0.26,0.03
				l5.25,1.22c0.2,0.01,0.43,0.07,0.65,0.15l2.42,0.56V20c0-0.63,0.51-1.15,1.15-1.15c0.63,0,1.15,0.51,1.15,1.15v3.88
				c0,0.35-0.16,0.68-0.43,0.9C16.83,24.94,16.58,25.03,16.32,25.03z"/>
		</g>
	</g>
</g>
</svg>
